<svg id="Group_4299" data-name="Group 4299" xmlns="http://www.w3.org/2000/svg" xmlns:xlink="http://www.w3.org/1999/xlink" width="73.5" height="72.11" viewBox="0 0 73.5 72.11">
  <defs>
    <clipPath id="clip-path">
      <rect id="Rectangle_17" data-name="Rectangle 17" width="73.5" height="72.11" fill="#001b39"/>
    </clipPath>
  </defs>
  <g id="Group_4298" data-name="Group 4298" clip-path="url(#clip-path)">
    <path id="Path_86" data-name="Path 86" d="M130.679,58.373v-2.8h-.792q-8.377,0-16.754,0c-3.47,0-5.613-2.13-5.614-5.589q0-14.438,0-28.876a5.127,5.127,0,0,1,5.432-5.414q8.445,0,16.89,0h.846V12.616H87.509c0,.906.006,1.784,0,2.662-.006.732-.356,1.159-.942,1.177-.606.018-1-.433-1-1.193,0-2.906-.033-5.812.01-8.717A6.505,6.505,0,0,1,92.13.02q16.992-.038,33.984,0A6.564,6.564,0,0,1,132.7,6.67c.011,2.724,0,5.448,0,8.173v.846h.769q4.257,0,8.513,0a5.143,5.143,0,0,1,5.405,5.384q.014,14.575,0,29.149a5.152,5.152,0,0,1-5.318,5.343c-2.838.02-5.675,0-8.513.005H132.7v.756c0,3.042.01,6.084,0,9.126a6.541,6.541,0,0,1-4.771,6.39,4.51,4.51,0,0,1-.852.054.634.634,0,0,1-.3.177,4.953,4.953,0,0,1-.883.036q-16.754,0-33.508,0a6.572,6.572,0,0,1-6.727-5.466,7.01,7.01,0,0,1-.092-1.287q-.009-7.628-.009-15.255c0-.519.111-.956.648-1.146.715-.253,1.3.227,1.3,1.083.007,2.474,0,4.949,0,7.423v.915ZM145.4,35.678q0-7.318,0-14.636a3.177,3.177,0,0,0-3.354-3.388q-14.568-.008-29.137,0a3.17,3.17,0,0,0-3.4,3.41q-.009,14.5,0,29c0,2.283,1.255,3.507,3.554,3.507h28.728c2.369,0,3.6-1.226,3.6-3.6q.008-7.148,0-14.3m-14.736,24.75H87.535c0,1.844-.076,3.637.036,5.419a4.973,4.973,0,0,0,.775,2.208,4.571,4.571,0,0,0,4.172,2.108q16.578,0,33.156,0c.181,0,.363,0,.544-.01a4.549,4.549,0,0,0,4.415-3.9c.134-1.916.028-3.849.028-5.826m.072-49.868c0-1.27.019-2.492,0-3.713a4.693,4.693,0,0,0-4.967-4.883q-5.278-.013-10.555-.006-11.406,0-22.813,0A4.544,4.544,0,0,0,87.7,5.532a42.136,42.136,0,0,0-.257,5.028Z" transform="translate(-73.897 0)" fill="#001b39"/>
    <path id="Path_87" data-name="Path 87" d="M13.8,166.693c-.272,0-.545,0-.817,0a2.354,2.354,0,0,1-2.406-1.811c-.2-.646-.243-1.379-1.146-1.576a1.178,1.178,0,0,0-1.072.082,5.314,5.314,0,0,1-.83.462,2.3,2.3,0,0,1-2.708-.392c-.422-.378-.82-.784-1.218-1.187a2.382,2.382,0,0,1-.44-3.148c.348-.625.749-1.23.186-1.919a2.145,2.145,0,0,0-.673-.567,9.408,9.408,0,0,0-.974-.291A2.245,2.245,0,0,1,.065,154.3a17.119,17.119,0,0,1-.048-2.176,2.3,2.3,0,0,1,1.616-2.145c.254-.095.519-.161.778-.242A1.4,1.4,0,0,0,3.26,147.6a6.375,6.375,0,0,1-.628-1.49,2.065,2.065,0,0,1,.568-1.881c.365-.4.755-.785,1.133-1.176a2.378,2.378,0,0,1,3.294-.517c.642.364,1.246.667,1.921.143a1.66,1.66,0,0,0,.5-.568,9.5,9.5,0,0,0,.314-1.039,2.321,2.321,0,0,1,2.159-1.686,17.676,17.676,0,0,1,2.041-.016,2.29,2.29,0,0,1,2.157,1.593c.11.3.189.606.28.91a1.312,1.312,0,0,0,2,.794c.258-.143.507-.3.769-.436a2.3,2.3,0,0,1,2.766.365c.483.446.963.9,1.411,1.378a2.281,2.281,0,0,1,.4,2.7c-.116.246-.252.482-.381.721a1.394,1.394,0,0,0,.885,2.083c1.137.272,2.2.672,2.4,1.974a10.6,10.6,0,0,1,.024,2.908,2.176,2.176,0,0,1-1.888,1.815c-.726.161-1.339.426-1.455,1.258a1.586,1.586,0,0,0,.052.75,10.241,10.241,0,0,0,.52.953,2.33,2.33,0,0,1-.351,2.717c-.442.486-.9.959-1.377,1.413a2.313,2.313,0,0,1-2.76.409c-.142-.07-.28-.149-.42-.224-1.287-.683-2.072-.334-2.457,1.093a2.472,2.472,0,0,1-2.781,2.138c-.181,0-.363,0-.544,0ZM22.656,145.6a4.114,4.114,0,0,0-.315-.435c-.249-.264-.541-.492-.766-.774a.825.825,0,0,0-1.332-.163,2.718,2.718,0,0,1-3.435.25.631.631,0,0,0-.187-.081,1.872,1.872,0,0,1-1.408-1.551c-.544-1.86-.16-1.416-1.963-1.509-.749-.039-1.088.236-1.177.944a2.4,2.4,0,0,1-2.043,2.35,1.35,1.35,0,0,0-.488.235,1.542,1.542,0,0,1-1.777-.019c-1.655-.919-1.656-.888-2.909.5-.282.313-.336.582-.084.894a3.136,3.136,0,0,1,.3,3.8A2.469,2.469,0,0,1,3.486,151.5c-1.823.557-1.418.108-1.493,1.976-.028.7.194,1.062.894,1.146a2.476,2.476,0,0,1,2.43,2.13.976.976,0,0,0,.173.368,1.646,1.646,0,0,1-.008,1.9c-1,1.9-1.071,1.176.383,2.707.382.4.712.49,1.167.145,1.07-.813,2.188-1.158,3.4-.277a.792.792,0,0,0,.319.114,1.694,1.694,0,0,1,1.363,1.4c.609,1.986.132,1.517,2.1,1.6.657.028.967-.213,1.045-.839a2.521,2.521,0,0,1,2.162-2.48.649.649,0,0,0,.244-.117,1.82,1.82,0,0,1,2.142.039c1.665.93,1.126.912,2.5-.373a.886.886,0,0,0,.149-1.385,2.472,2.472,0,0,1-.237-3.224.777.777,0,0,0,.12-.317c.141-.859.71-1.2,1.5-1.438,1.861-.551,1.482-.177,1.519-2.019.013-.662-.174-1.027-.851-1.109a2.455,2.455,0,0,1-2.447-2.1.813.813,0,0,0-.145-.306,1.66,1.66,0,0,1,.024-2.076,12.094,12.094,0,0,0,.713-1.355" transform="translate(0 -120.365)" fill="#001b39"/>
    <path id="Path_88" data-name="Path 88" d="M297.748,160.3q-6.775,0-13.55,0c-1.134,0-1.4-.274-1.405-1.4q0-3.2,0-6.4c0-1.046.3-1.354,1.317-1.354q13.72,0,27.44,0c.987,0,1.314.321,1.317,1.3q.011,3.268,0,6.537c0,.979-.329,1.311-1.3,1.312q-6.911,0-13.822,0m-12.925-2h26v-5.148h-26Z" transform="translate(-244.271 -130.557)" fill="#001b39"/>
    <path id="Path_89" data-name="Path 89" d="M423.094,243.29q-2.28,0-4.561,0c-.966,0-1.294-.3-1.3-1.236q-.014-3.336,0-6.672c0-.917.334-1.234,1.231-1.235q4.663,0,9.327,0c.812,0,1.188.337,1.193,1.132q.021,3.438,0,6.876c0,.786-.382,1.13-1.2,1.133-1.566.006-3.132,0-4.7,0m3.857-7.15h-7.7v5.152h7.7Z" transform="translate(-360.394 -202.25)" fill="#001b39"/>
    <path id="Path_90" data-name="Path 90" d="M288.664,234.15c1.543,0,3.086,0,4.628,0,.908,0,1.213.311,1.215,1.23q.007,3.335,0,6.67c0,.923-.3,1.237-1.207,1.238q-4.663.007-9.325,0c-.86,0-1.19-.334-1.192-1.2q-.009-3.369,0-6.739c0-.89.335-1.2,1.251-1.2q2.314,0,4.629,0m3.9,1.98h-7.744v5.217c2.482,0,4.907.007,7.331-.017a.563.563,0,0,0,.4-.382c.028-1.584.018-3.17.018-4.818" transform="translate(-244.261 -202.254)" fill="#001b39"/>
    <path id="Path_91" data-name="Path 91" d="M423.184,318.237c1.564,0,3.128-.005,4.692,0,.754,0,1.215.394,1.206.991-.008.569-.447.96-1.167.963q-4.759.019-9.519.005a.984.984,0,1,1,.028-1.959c1.586-.014,3.173,0,4.76,0Z" transform="translate(-360.49 -274.883)" fill="#001b39"/>
    <path id="Path_92" data-name="Path 92" d="M288.662,320.217h-4.555c-.821,0-1.276-.347-1.279-.979s.452-.987,1.273-.987q4.657,0,9.314,0c.843,0,1.338.609,1.084,1.31a1,1,0,0,1-1.078.651c-1.586-.009-3.172,0-4.759,0Z" transform="translate(-244.302 -274.898)" fill="#001b39"/>
    <path id="Path_93" data-name="Path 93" d="M287.091,351.679c-1.042,0-2.084.008-3.126,0-.7-.007-1.147-.4-1.149-.974,0-.6.4-.985,1.133-.991q3.16-.026,6.32,0a.994.994,0,0,1,1.116,1.012c-.013.572-.461.948-1.168.953-1.042.008-2.084,0-3.126,0" transform="translate(-244.292 -302.065)" fill="#001b39"/>
    <path id="Path_94" data-name="Path 94" d="M421.574,351.72c-1.041,0-2.083.008-3.124,0a1.014,1.014,0,0,1-1.126-.922.986.986,0,0,1,1.091-1.035q3.192-.026,6.384.006c.717.007,1.113.42,1.085,1.026a.992.992,0,0,1-1.118.926c-1.064.009-2.128,0-3.192,0" transform="translate(-360.476 -302.107)" fill="#001b39"/>
    <path id="Path_95" data-name="Path 95" d="M234.751,458.5a3.257,3.257,0,1,1,6.515,0,3.257,3.257,0,0,1-6.515,0m3.25-1.3a1.3,1.3,0,0,0-1.278,1.314,1.277,1.277,0,0,0,1.283,1.226,1.254,1.254,0,0,0,1.264-1.3,1.274,1.274,0,0,0-1.27-1.238" transform="translate(-202.774 -393.219)" fill="#001b39"/>
    <path id="Path_96" data-name="Path 96" d="M221.509,38.967c1.541,0,3.082,0,4.624,0,.788,0,1.214.35,1.223.965s-.438.984-1.2.985q-4.658.006-9.315,0c-.8,0-1.2-.331-1.213-.959s.39-.979,1.188-.984c1.564-.011,3.128,0,4.692,0Z" transform="translate(-186.257 -33.657)" fill="#001b39"/>
    <path id="Path_97" data-name="Path 97" d="M58.777,192.759a6.567,6.567,0,1,1-6.649,6.511,6.565,6.565,0,0,1,6.649-6.511m4.521,6.568a4.59,4.59,0,1,0-4.6,4.594,4.617,4.617,0,0,0,4.6-4.594" transform="translate(-45.027 -166.501)" fill="#001b39"/>
  </g>
</svg>
