<svg id="Group_4303" data-name="Group 4303" xmlns="http://www.w3.org/2000/svg" xmlns:xlink="http://www.w3.org/1999/xlink" width="67.128" height="67.126" viewBox="0 0 67.128 67.126">
  <defs>
    <clipPath id="clip-path">
      <rect id="Rectangle_25" data-name="Rectangle 25" width="67.128" height="67.126" fill="#001b39"/>
    </clipPath>
  </defs>
  <g id="Group_4302" data-name="Group 4302" clip-path="url(#clip-path)">
    <path id="Path_100" data-name="Path 100" d="M.04,31.828C.04,21.987.085,12.145,0,2.3-.016.442.613-.007,2.376,0Q24.847.087,47.318,0a3.532,3.532,0,0,1,3.267,1.369A9.215,9.215,0,0,0,60.272,5.4a17.8,17.8,0,0,1,3.568-.014A3.167,3.167,0,0,1,67.12,8.736q.019,26.61-.021,53.22A5.108,5.108,0,0,1,62.15,67.1c-.5.033-1,.022-1.5.023q-27.078,0-54.157,0c-4.53,0-6.429-1.862-6.435-6.336q-.016-14.48,0-28.961ZM2.15,2.258c0,.742,0,1.352,0,1.962Q2.145,32.246,2.14,60.272c0,3.825.926,4.744,4.807,4.745q23.984.008,47.968,0h1.9c-.176-1.956-.453-3.618-.456-5.282q-.048-23.327-.021-46.655c0-.719-.077-1.438-.117-2.147h-4.2c.133,1.83-.4,3.222-2.137,3.847a6.7,6.7,0,0,1-5.614-.5,1.347,1.347,0,0,1-.4-1.256,1.489,1.489,0,0,1,1.154-.663c.536-.018,1.074.36,1.625.407,1.046.09,2.242.519,3.082-1.106-1.275-.415-2.439-.757-3.576-1.172-1.306-.476-2.39-1.231-2.371-2.8a2.993,2.993,0,0,1,2.506-3.1c1.526-.325,1.541-1.137,1.139-2.336ZM57.737,7.684a28.25,28.25,0,0,1,.692,4.372c.05,15.864.03,31.727.035,47.591a13.882,13.882,0,0,0,.1,2.625,3.023,3.023,0,0,0,3.159,2.66,2.92,2.92,0,0,0,3.166-2.606,10.744,10.744,0,0,0,.143-1.87q.01-25.112-.02-50.224c0-.945.5-2.534-1.086-2.522-1.639.012-1.006,1.611-1.009,2.535q-.057,23.889-.03,47.779a3.956,3.956,0,0,1-.061,1.487c-.193.442-.692.75-1.057,1.117-.356-.366-.846-.676-1.03-1.115a4.085,4.085,0,0,1-.052-1.488q0-24.172,0-48.343v-2Zm-3.426.928L49.922,4.1V8.612Z" transform="translate(0 0)" fill="#001b39"/>
    <path id="Path_101" data-name="Path 101" d="M137.07,15.407h-4.389V10.895l4.389,4.512" transform="translate(-82.759 -6.796)" fill="#001b39"/>
    <path id="Path_102" data-name="Path 102" d="M25.407,84.954c-3.943,0-7.887-.048-11.829.024-1.575.029-2.263-.447-2.243-2.134.068-5.82.053-11.642,0-17.463-.015-1.6.53-2.207,2.189-2.194q11.922.1,23.846,0c1.6-.013,2.223.447,2.2,2.127-.079,5.883-.063,11.767-.007,17.65.014,1.452-.476,2.02-1.949,2-4.068-.059-8.136-.02-12.2-.02Zm-11.762-2.3h23.59v-17.1H13.645Z" transform="translate(-7.068 -39.412)" fill="#001b39"/>
    <path id="Path_103" data-name="Path 103" d="M36.772,46.091q11.179,0,22.358,0a4.83,4.83,0,0,1,1.49.069c.347.116.845.57.818.827a1.524,1.524,0,0,1-.76,1.075,4.357,4.357,0,0,1-1.661.153q-22.452.006-44.9,0a3.764,3.764,0,0,1-1.482-.084,1.488,1.488,0,0,1-.806-1.057c.005-.324.527-.753.914-.923a3.446,3.446,0,0,1,1.3-.057q11.367,0,22.734,0" transform="translate(-7.376 -28.729)" fill="#001b39"/>
    <path id="Path_104" data-name="Path 104" d="M32.184,134.459c-6.263,0-12.526.027-18.788-.044-.58-.006-1.153-.63-1.73-.967a15.486,15.486,0,0,1,1.755-1.177c.3-.151.738-.026,1.114-.026H47.6a19.475,19.475,0,0,1,3.372.056c.633.113,1.17.763,1.751,1.172-.585.328-1.166.936-1.754.943-6.262.069-12.525.043-18.789.043" transform="translate(-7.277 -82.457)" fill="#001b39"/>
    <path id="Path_105" data-name="Path 105" d="M79.272,18.233c.656-2.068,1.069-3.647,1.679-5.146.214-.525.923-1.19,1.388-1.177s1.11.714,1.326,1.253c.6,1.5,1.02,3.065,1.651,5.044.646-2,1.064-3.614,1.711-5.127.223-.521,1.021-.8,1.556-1.184.218.617.747,1.322.6,1.836-.716,2.523-1.558,5.015-2.486,7.469a2.021,2.021,0,0,1-1.417,1.176c-.479-.006-1.155-.682-1.383-1.218-.582-1.373-.962-2.832-1.583-4.748a46.51,46.51,0,0,1-1.54,4.466,2.82,2.82,0,0,1-1.592,1.483c-.351.085-1.181-.8-1.408-1.4-.863-2.276-1.64-4.593-2.285-6.939-.17-.619.038-1.822.441-2.025,1.048-.528,1.492.368,1.768,1.3.441,1.486.937,2.955,1.573,4.939" transform="translate(-47.05 -7.385)" fill="#001b39"/>
    <path id="Path_106" data-name="Path 106" d="M24.358,17.749a37.448,37.448,0,0,1,.053-4.254c.064-.559.723-1.049,1.111-1.571.393.519,1.1,1.023,1.126,1.561.116,2.369.1,4.75-.017,7.12-.03.617-.516,1.64-.924,1.711a2.512,2.512,0,0,1-2.014-.76,57.156,57.156,0,0,0-4.136-5.018,40.108,40.108,0,0,1-.053,4.377c-.062.563-.722,1.06-1.11,1.587-.39-.519-1.09-1.021-1.118-1.559a66.87,66.87,0,0,1,0-7.119c.035-.649.593-1.662,1.095-1.791a2.457,2.457,0,0,1,1.966.881c1.3,1.582,2.417,3.31,3.605,4.982l.42-.146" transform="translate(-10.716 -7.438)" fill="#001b39"/>
    <path id="Path_107" data-name="Path 107" d="M52.812,14.088c-.436,1.36-.141,1.939,1.107,1.886a10.135,10.135,0,0,1,2.434.075c.435.09.785.6,1.173.919-.381.412-.7,1.069-1.156,1.182-.83.206-1.754,0-2.611.144-.418.068-.774.522-1.157.8.4.34.763.9,1.207.974.914.155,1.9-.08,2.8.1.531.107.962.708,1.437,1.087-.424.38-.828,1.057-1.277,1.089a30.592,30.592,0,0,1-5.251-.035,1.961,1.961,0,0,1-1.233-1.431,67.363,67.363,0,0,1,.008-7.513,2.1,2.1,0,0,1,1.4-1.46,27.17,27.17,0,0,1,5.064-.02c.454.033.863.669,1.293,1.028-.412.391-.791,1.065-1.243,1.118a34.564,34.564,0,0,1-4,.054" transform="translate(-31.302 -7.347)" fill="#001b39"/>
    <path id="Path_108" data-name="Path 108" d="M92.771,161.231c3.311,0,6.624-.056,9.932.049.623.02,1.225.678,1.836,1.041-.612.372-1.22,1.06-1.836,1.067q-10.027.115-20.054,0c-.611-.008-1.213-.7-1.82-1.076.607-.359,1.2-1.009,1.821-1.028,3.371-.1,6.746-.049,10.12-.049" transform="translate(-50.418 -100.558)" fill="#001b39"/>
    <path id="Path_109" data-name="Path 109" d="M23.51,163.441c-3.322,0-6.647.065-9.965-.056-.657-.024-1.288-.763-1.93-1.173.653-.324,1.3-.923,1.96-.93q9.966-.1,19.933.005c.6.007,1.2.682,1.8,1.046-.608.369-1.208,1.039-1.827,1.059-3.319.106-6.643.05-9.965.049" transform="translate(-7.245 -100.567)" fill="#001b39"/>
    <path id="Path_110" data-name="Path 110" d="M23.411,149.711c3.379,0,6.76-.055,10.136.052.6.019,1.187.71,1.78,1.09-.574.322-1.145.92-1.721.926q-10.137.1-20.275-.005c-.57-.006-1.135-.637-1.7-.978.548-.355,1.088-1,1.646-1.017,3.376-.1,6.757-.048,10.136-.048v-.02" transform="translate(-7.254 -93.373)" fill="#001b39"/>
    <path id="Path_111" data-name="Path 111" d="M92.622,151.835c-3.382,0-6.766.049-10.146-.043-.579-.015-1.142-.621-1.712-.955.546-.374,1.088-1.068,1.636-1.073q10.239-.1,20.48.029c.544.007,1.079.7,1.619,1.07-.577.323-1.146.911-1.732.926-3.38.09-6.764.044-10.146.046" transform="translate(-50.376 -93.389)" fill="#001b39"/>
    <path id="Path_112" data-name="Path 112" d="M102.085,115.205c2.686,0,5.375-.053,8.058.042.532.019,1.043.6,1.564.923-.523.405-1.041,1.154-1.57,1.162q-8.151.124-16.3-.011c-.512-.008-1.013-.755-1.52-1.159.509-.318,1.008-.894,1.527-.911,2.746-.092,5.5-.043,8.246-.045" transform="translate(-57.58 -71.849)" fill="#001b39"/>
    <path id="Path_113" data-name="Path 113" d="M101.92,65.46c-2.626,0-5.255.071-7.876-.053-.593-.028-1.153-.734-1.729-1.128.559-.344,1.114-.98,1.678-.988q7.97-.115,15.942.005c.594.01,1.176.724,1.764,1.112-.572.35-1.131.979-1.716,1-2.684.108-5.375.048-8.064.049" transform="translate(-57.581 -39.441)" fill="#001b39"/>
    <path id="Path_114" data-name="Path 114" d="M101.968,82.658c-2.685,0-5.371.059-8.051-.048-.546-.022-1.066-.668-1.6-1.026.492-.356.98-1.014,1.478-1.022q8.239-.128,16.48-.03c.479.006.95.717,1.426,1.1-.5.342-.985.962-1.495.98-2.744.1-5.492.046-8.239.047" transform="translate(-57.584 -50.205)" fill="#001b39"/>
    <path id="Path_115" data-name="Path 115" d="M101.876,100.052c-2.628,0-5.259.058-7.884-.047-.577-.023-1.131-.626-1.7-.962.549-.348,1.093-.989,1.646-1q8.072-.126,16.146-.021c.538.007,1.066.7,1.6,1.068-.517.321-1.024.9-1.551.918-2.751.093-5.507.043-8.261.042" transform="translate(-57.57 -61.112)" fill="#001b39"/>
  </g>
</svg>
