<svg id="Group_4301" data-name="Group 4301" xmlns="http://www.w3.org/2000/svg" xmlns:xlink="http://www.w3.org/1999/xlink" width="67.049" height="79.873" viewBox="0 0 67.049 79.873">
  <defs>
    <clipPath id="clip-path">
      <rect id="Rectangle_24" data-name="Rectangle 24" width="67.05" height="79.873" fill="#fff"/>
    </clipPath>
  </defs>
  <g id="Group_4300" data-name="Group 4300" clip-path="url(#clip-path)">
    <path id="Path_98" data-name="Path 98" d="M16.9,109.033v-2.614h5.014v-6.44H20.606c-4.918,0-9.838-.107-14.751.034A5.492,5.492,0,0,1,0,94.18C.1,83.46.034,72.739.041,62.018c0-3.742,2.085-5.8,5.842-5.8q8.428,0,16.857,0h1.305c-.265-1.716-.53-3.307-.742-4.9a1.451,1.451,0,0,1,.2-.983q4.863-6.322,9.779-12.6a2.031,2.031,0,0,1,.334-.253c1.827,2.337,3.642,4.654,5.451,6.976,1.453,1.864,2.926,3.713,4.325,5.617a2.279,2.279,0,0,1,.364,1.473c-.168,1.529-.456,3.045-.716,4.68h4.187c4.732,0,9.463-.008,14.2,0,3.523.008,5.628,2.134,5.629,5.678q.006,16.247,0,32.495c0,2.728-1.359,4.723-3.732,5.377a8.422,8.422,0,0,1-2.19.2c-4.88.016-9.761.008-14.641.008H45.19v6.431h4.993v2.624ZM41.827,64.019c-.453,1.272-.453,1.272.506,2.015a3.784,3.784,0,0,1-.237,6.215,1.577,1.577,0,0,0-.814,1.6c.037,2.55.023,5.1.011,7.652-.009,2.041-1.032,3.078-3.062,3.088q-4.658.022-9.317,0c-2.111-.007-3.118-1.021-3.125-3.132-.009-2.625-.017-5.25.009-7.874a1.2,1.2,0,0,0-.663-1.219,3.734,3.734,0,0,1-.335-6.311,1.348,1.348,0,0,0,.471-2H7.876V92.211H59.2V64.019Zm-16.922-2.69c-.055-.384-.084-.671-.138-.953-.3-1.555-.3-1.554-1.923-1.554q-8.431,0-16.862,0c-2.558,0-3.322.757-3.323,3.287q0,13.2,0,26.4c0,2.144.014,4.289.014,6.433a2.258,2.258,0,0,0,1.6,2.284,5.607,5.607,0,0,0,1.85.238q27.4.017,54.8.009a9.226,9.226,0,0,0,1-.016,2.519,2.519,0,0,0,2.489-2.7q.024-16.638,0-33.277A2.389,2.389,0,0,0,61.8,58.838q-9.263-.043-18.526,0a.992.992,0,0,0-.769.507,14.225,14.225,0,0,0-.314,2.049H61.854V94.78H5.249V61.328Zm7.323-17.705-.218-.079c-1.943,2.5-3.9,4.992-5.809,7.519a1.649,1.649,0,0,0-.175,1.135Q27,58.363,28.068,64.514a1.069,1.069,0,0,0,.747.693c3.322.047,6.644.031,9.965.031a4.915,4.915,0,0,0,.241-.708c.55-3.344.892-6.738,1.7-10.018a5.707,5.707,0,0,0-1.541-5.762c-1.5-1.639-2.772-3.485-4.33-5.477,0,.564,0,.814,0,1.063,0,1.294-.025,2.589.025,3.881.01.252.284.517.481.736a10.727,10.727,0,0,1,1.677,1.852,3.789,3.789,0,0,1-1.668,4.94,3.858,3.858,0,0,1-3.975-6.6c.342-.239.78-.638.8-.985.088-1.508.038-3.023.038-4.536m10.308,56.45H24.551v6.284H42.537ZM28.5,81.906H38.59V73H28.5Zm4.981-11.5c2.028,0,4.056.011,6.084,0,1.073-.009,1.771-.541,1.688-1.321-.106-1.007-.8-1.3-1.728-1.294q-5.974.018-11.947,0c-.912,0-1.638.263-1.746,1.276-.087.818.636,1.335,1.785,1.34,1.954.009,3.908,0,5.863,0m-.263-16.639.532.018c.359-.464.931-.889,1.025-1.4.131-.713-.376-1.233-1.18-1.27A1.1,1.1,0,0,0,32.311,52.3c.042.511.584.98.9,1.469" transform="translate(0 -29.16)" fill="#fff"/>
    <path id="Path_99" data-name="Path 99" d="M85.63,0a4.2,4.2,0,0,1,2.894,3.17,3.822,3.822,0,0,1-2.352,4.285,3.741,3.741,0,0,1-4.633-1.546,1.377,1.377,0,0,0-1.467-.8c-1.682.034-3.365.011-5.1.114a20.247,20.247,0,0,1,5.512,5.518,17.505,17.505,0,0,1,2.749,7.241h2.745v7.708H78.389V18.059h2.024c.582-5.866-7.292-12.7-14.73-12.931-7.367-.225-15.535,6.614-15.27,12.864h2.055v7.695H44.886V18.052h2.706A18.608,18.608,0,0,1,56.2,5.123c-2.679,0-5.051-.01-7.422.021-.18,0-.4.276-.526.471C47.062,7.4,45.642,8.044,43.868,7.586A3.806,3.806,0,0,1,41.008,4.3c-.151-1.988.71-3.278,2.76-4.148.059-.025.1-.1.145-.154h1.775a13.785,13.785,0,0,1,2.349,1.867,1.628,1.628,0,0,0,1.419.737q6.969-.028,13.937-.011c5.567,0,11.133.025,16.7.011a2.01,2.01,0,0,0,1.153-.371C82.15,1.532,82.99.75,83.855,0ZM47.482,23.112h2.4v-2.43h-2.4Zm33.54.011h2.335V20.67H81.022ZM44.532,5.3l.533.011c.348-.472.919-.914.991-1.425.1-.693-.392-1.223-1.216-1.239a1.1,1.1,0,0,0-1.252,1.206c.054.51.611.967.944,1.447m39.955,0,.533.006c.345-.475.913-.921.979-1.433.09-.692-.4-1.219-1.229-1.228a1.1,1.1,0,0,0-1.242,1.217c.058.509.621.962.958,1.439" transform="translate(-31.896)" fill="#fff"/>
    <rect id="Rectangle_18" data-name="Rectangle 18" width="2.382" height="2.373" transform="translate(10.451 49.038)" fill="#fff"/>
    <rect id="Rectangle_19" data-name="Rectangle 19" width="2.464" height="2.375" transform="translate(20.719 49.03)" fill="#fff"/>
    <rect id="Rectangle_20" data-name="Rectangle 20" width="2.455" height="2.418" transform="translate(43.884 49.023)" fill="#fff"/>
    <rect id="Rectangle_21" data-name="Rectangle 21" width="2.482" height="2.383" transform="translate(54.223 49.056)" fill="#fff"/>
    <rect id="Rectangle_22" data-name="Rectangle 22" width="2.386" height="2.379" transform="translate(15.586 49.027)" fill="#fff"/>
    <rect id="Rectangle_23" data-name="Rectangle 23" width="2.433" height="2.356" transform="translate(49.068 49.078)" fill="#fff"/>
  </g>
</svg>
