<svg xmlns="http://www.w3.org/2000/svg" width="580.558" height="270.645" viewBox="0 0 580.558 270.645">
  <g id="Group_3" data-name="Group 3" transform="translate(-402 -1057.272)">
    <path id="Path_5" data-name="Path 5" d="M548.741,299.253c-5.056-3.981-10.124-4.008-15.914-.064a30.444,30.444,0,0,0-9.957,11.866,54.335,54.335,0,0,0-6.175,23.919c-.06,4.532,2.488,6.068,6.628,4.187,5.29-2.4,9.06-6.552,12.47-11.065,5.6-7.413,9.751-15.676,13.835-23.971a23.655,23.655,0,0,1,2.163-3.762c2.758-3.679,6.8-4.477,10.628-1.921a16.527,16.527,0,0,1,7.644,15c-.083,3.024-.623,6.032-.941,9.048-.048.437-.008.881-.008,1.587,1.044-.575,1.881-1.068,2.746-1.508q15.93-8.156,31.852-16.331a2.935,2.935,0,0,0,1.492-1.576,88.565,88.565,0,0,0,1.877-10.025c.194-1.822.571-2.6,2.52-2.552,5.679.147,8.616,3.985,6.79,9.985-1.853,6.1-4.4,11.989-6.675,17.954-3.242,8.485-6.56,16.946-9.735,25.459-.337.9.052,2.08.107,3.127,1.087-.437,2.556-.564,3.191-1.357,2.715-3.4,5.314-6.913,7.719-10.537,5.806-8.743,11.4-17.633,17.264-26.336a45.832,45.832,0,0,1,6.163-6.949c1.663-1.615,3.691-3.016,6.223-1.742a6.665,6.665,0,0,1,3.766,6.493c-.127,4.282-.532,8.564-.933,12.835-.639,6.834-1.441,13.652-2,20.486a15.132,15.132,0,0,0,.627,5.072c1.04,3.854,4.127,5.643,8.021,4.921a27.231,27.231,0,0,0,12.541-6.437c2.623-2.211,5.02-4.691,7.532-7.032.5-.46,1.06-.849,1.587-1.27.163.119.325.242.492.361a5.98,5.98,0,0,1-.818,1.675c-6.06,6.136-12.493,11.811-20.26,15.74-3.143,1.587-6.409,2.881-10.041,2.409-6.469-.845-10.457-4.536-10.87-11.088a106.962,106.962,0,0,1,.54-15.97c.48-5.516,1.46-10.989,2.1-16.494a9.174,9.174,0,0,0-.647-2.909c-.953.488-2.226.73-2.8,1.5-3.437,4.6-6.834,9.235-10.017,14.013-4.064,6.1-7.8,12.414-11.914,18.474a30.788,30.788,0,0,1-5.993,6.54,14.234,14.234,0,0,1-6.009,2.687c-4.909.98-8.076-2.476-6.739-7.263a98.8,98.8,0,0,1,3.481-9.874c3.536-8.878,7.171-17.716,10.763-26.57.238-.591.452-1.191.845-2.23-3.231,1.472-6.14,2.639-8.9,4.084q-12.632,6.59-25.153,13.386a3.554,3.554,0,0,0-1.663,1.953c-3.683,14.644-9.933,28.205-17.4,41.238-11.446,19.99-24.737,38.615-41.457,54.585a128.812,128.812,0,0,1-12.485,10.057,17.921,17.921,0,0,1-10.553,3.5c-6.528.091-10.565-4.492-9.91-11.009a41.734,41.734,0,0,1,4.052-13.37c5.8-12.525,13.89-23.514,22.9-33.865a258.862,258.862,0,0,1,51.136-44.556,5.381,5.381,0,0,0,2.643-3.873c.71-4.695,1.718-9.354,2.234-14.065A8.839,8.839,0,0,0,555,306.873c-2.226-1.369-3.615-.945-4.826,1.357A180.041,180.041,0,0,1,532.4,336.3c-4.354,5.52-9.1,10.672-15.251,14.287a23.291,23.291,0,0,1-4.282,2.016c-5.592,1.889-9.866-1.024-10.025-6.933-.071-2.679.317-5.374.5-8.112-2.1,1.794-4.211,3.723-6.453,5.481a41.253,41.253,0,0,1-18.4,8.691c-10.108,1.8-17.406-4.06-18.891-13.589-.052-.321-.087-.643-.139-1.024a14.957,14.957,0,0,0-8.6.274c-4.552,1.254-9,2.881-13.493,4.354-1.226.4-1.576,1.242-1.695,2.536-.437,4.81-1.242,9.572-3.639,13.866-1.734,3.107-4.242,4.342-6.977,3.647-3.611-.917-5.235-4.747-3.683-8.806,1.337-3.5,4.028-5.862,7.056-7.8a2.83,2.83,0,0,0,1.5-3.385c-1.048-5.262-2.02-10.537-2.984-15.617-3.925,4.044-7.374,8.16-11.39,11.62-8.179,7.052-17.9,10.719-28.614,11.866-5.7.611-11.362.706-16.847-1.21-6.767-2.369-11.838-6.521-13.1-13.974-.718-4.254.845-8.243,2.607-12.017a69.264,69.264,0,0,1,18.518-24.443,20.614,20.614,0,0,1,6.647-3.758c4.719-1.512,7.739.984,7.656,6.016a24.15,24.15,0,0,1-3.695,11.969c-4.048,6.834-9.858,12.025-15.926,16.97-1.076.873-2.171,1.718-3.417,2.7a20.665,20.665,0,0,0,9,10.12,23.093,23.093,0,0,0,13.958,2.762c13.874-1.171,24.514-7.886,32.614-18.99a3.356,3.356,0,0,0,.548-3.282c-2.024-6.953-4.449-13.851-5.731-20.946-1.4-7.727-.246-15.323,5.135-21.637a13.649,13.649,0,0,1,10.061-4.858c7.294-.353,12.077,4.7,12.7,12.731.607,7.826-2.746,13.942-7.656,19.494-1.663,1.877-3.568,3.54-5.282,5.37a2.468,2.468,0,0,0-.762,1.774,86.764,86.764,0,0,1,2.076,26.078c7.6-3.23,15.2-5.437,23.431-5.624.5-9.263,4.608-17.248,8.481-25.332a58.157,58.157,0,0,0,2.961-7.533,2.451,2.451,0,0,1,3.127-1.909c5.826.861,8.592,4.616,7.243,10.342a43.884,43.884,0,0,1-3.008,7.917c-2.258,4.977-5.08,9.747-5.826,15.267a25.048,25.048,0,0,0-.091,7.1c.929,6.02,6.223,8.922,12.644,7.06,6.453-1.873,11.624-5.81,16.387-10.4a19.241,19.241,0,0,0,4.631-7.624c5.334-14.632,14.045-26.888,26.749-36.019,3.036-2.183,6.771-3.417,10.243-4.945a6.542,6.542,0,0,1,2.929-.246c2.651.167,4.54,1.556,5.151,3.647a6.656,6.656,0,0,1-2.357,7.017Zm7.267,34.972a8.7,8.7,0,0,0-.8.393c-18.4,12.529-34.726,27.237-47.584,45.548a128.333,128.333,0,0,0-17.649,34.595c-1.044,3.262-1.961,6.6-1.083,10.1.635,2.536,2.2,3.905,4.826,3.754a13.228,13.228,0,0,0,4.754-1.1c6.433-3.032,11.66-7.707,16.529-12.775,11.628-12.1,20.018-26.34,27.086-41.425a217.3,217.3,0,0,0,13.922-39.1Zm-122.536-22.07c6.6-6.469,10.124-13.791,9.2-22.875-.3-2.893-.73-5.794-2.877-8.033-1.865-1.945-4.377-2.084-6.028,0a14.252,14.252,0,0,0-2.742,5.358c-2.008,8.66.548,16.922,2.453,25.546Zm-64.868,18.5c4.616-3.266,8.648-6.536,11.37-11.116,2.23-3.75,3.286-7.771,2.155-12.108-.79-3.024-3.286-4.31-6.1-2.945a12.371,12.371,0,0,0-4.441,3.457c-5.128,6.874-4.913,14.537-2.992,22.709Z" transform="translate(186.796 891.359)" fill="#fff"/>
    <path id="Path_6" data-name="Path 6" d="M65.407,54.158C62.4,66.481,59.831,78.811,56.351,90.876,49.9,113.215,42.877,135.392,36.17,157.66c-2.3,7.632-4.358,15.335-6.56,22.994-.325,1.135-.385,2.992-2.036,2.615-1.746-.4-.81-2.139-.571-3.2,7.822-34.718,15.783-69.4,23.506-104.141,2.274-10.227,3.905-20.593,5.774-30.908a2.531,2.531,0,0,0-.488-1.917c-13.239-13.835-27.745-26.038-45-34.654A11.5,11.5,0,0,0,7.624,7.4a3.482,3.482,0,0,0-4.2,2.707C2.194,14.075,4.663,19.9,8.719,22.679a12.112,12.112,0,0,1,2.607,2.084,2.34,2.34,0,0,1,.206,2.08c-.155.329-1.417.516-1.889.25a15.507,15.507,0,0,1-3.27-2.5A20.393,20.393,0,0,1,.17,13.126C-.969,5.859,3.691.24,11.124.01c6-.183,11.6,1.524,17.049,3.826,11.688,4.945,21.879,12.239,31.4,20.47a212.141,212.141,0,0,1,48.1,59.494A141.72,141.72,0,0,1,121.6,120.478c5,22.153-.849,41.591-14.839,58.835-13.22,16.291-30.69,24.967-51.382,27.475-10.795,1.31-21.494,1.127-31.983-2.036-7.913-2.389-15.045-6.088-20.28-12.759a11.677,11.677,0,0,1-1.4-2.151,2.924,2.924,0,0,1,1.643-4.068c1.651-.742,3.429-.234,3.941,1.453,2.278,7.465,8.2,11.077,14.728,13.95,7.433,3.274,15.319,4.338,23.4,4.2,11.731-.2,23.149-2.06,33.864-7.017,15.228-7.044,26.253-17.994,31.031-34.472,2.814-9.7,1.695-19.359-.718-28.947-4.568-18.165-12.8-34.714-22.474-50.612A251.544,251.544,0,0,0,66.685,55.61c-.413-.5-.861-.984-1.278-1.453Z" transform="translate(402 1057.276)" fill="#fff"/>
    <path id="Path_7" data-name="Path 7" d="M1163.473,325.9c3.6,8.644,12.354,13.612,22.538,12.815,8.925-.7,17.188-3.417,23.828-9.5a93.574,93.574,0,0,0,11.2-12.8c4.564-6.056,8.688-12.45,12.99-18.7.369-.536.659-1.123,1.087-1.857-1.175-.822-2.3-1.584-3.4-2.385-4.548-3.3-5.643-7.1-3.405-12.291,2.179-5.056,5.941-8.87,10.168-12.212a23.446,23.446,0,0,1,6.032-3.647c3.361-1.266,5.818.774,5.167,4.294a33.218,33.218,0,0,1-2.7,8.414c-2.258,4.616-4.933,9.021-7.445,13.513-.381.683-.8,1.345-1.349,2.266,1.643,1.143,3.163,2.274,4.758,3.29,1.278.814,2.643,1.488,3.977,2.214,3.87,2.107,4.83,4.266,3.58,8.481-1.385,4.671-3.068,9.267-4.266,13.982-1.294,5.088-1.8,10.295,0,15.418,1.984,5.635,5.866,7.489,11.529,5.612a23.03,23.03,0,0,0,9.493-6.608c1.976-2.123,3.707-4.473,5.556-6.715.437-.528.9-1.036,1.349-1.552.167.1.333.187.5.282a6.651,6.651,0,0,1-.556,1.647,62.851,62.851,0,0,1-16.676,17.569c-5.489,3.758-11.017,3.639-16.466.071-5.413-3.54-8.1-8.489-7.354-15.117.695-6.231,2.905-12.013,5-17.843.8-2.23,1.635-4.457,2.258-6.739,1.4-5.147.258-7.965-4.385-10.981-1.742,2.627-3.405,5.314-5.247,7.874-4.973,6.909-9.715,14.017-15.109,20.585-9.017,10.985-21.046,16.641-35.063,18.26-5.758.667-11.5.746-17.037-1.218-6.751-2.393-11.8-6.568-13.037-14.029-.623-3.75.647-7.318,2.131-10.731a70.355,70.355,0,0,1,19.339-25.991,15.042,15.042,0,0,1,7.727-3.762c3.119-.421,5.29.956,5.965,4.08.909,4.223-.417,8.12-2.155,11.85-2.583,5.54-6.592,10.029-11.072,14.089-3.032,2.746-6.211,5.326-9.442,8.08Zm-.865-1.381c4.711-3.278,8.878-6.691,11.612-11.505,2.083-3.663,3.032-7.592,1.9-11.775-.79-2.933-3.222-4.191-5.969-2.913a11.847,11.847,0,0,0-4.358,3.246c-5.33,6.937-5.143,14.716-3.191,22.951Zm74.555-31.971c3.338-6.215,6.651-12.2,8.7-18.768a12.167,12.167,0,0,0,.036-3.179,10.344,10.344,0,0,0-2.167,1.024c-4.286,3.615-7.556,7.909-8.664,13.557a8.66,8.66,0,0,0,2.087,7.37Z" transform="translate(-292.1 897.474)" fill="#fff"/>
    <path id="Path_8" data-name="Path 8" d="M683.889,242.5a7.525,7.525,0,0,1-7.473,7.572,7.684,7.684,0,0,1-7.576-7.56,7.763,7.763,0,0,1,7.465-7.5A7.589,7.589,0,0,1,683.889,242.5Z" transform="translate(-1.4 915.532)" fill="#fff"/>
  </g>
</svg>
