<svg xmlns="http://www.w3.org/2000/svg" width="252.962" height="143.214" viewBox="0 0 252.962 143.214">
  <path id="Path_83" data-name="Path 83" d="M114.259,0c2.2.245,4.408.443,6.6.742,14.364,1.963,28.011,6.134,40.449,13.7,3.2,1.949,5.978,4.6,8.965,6.907a3.721,3.721,0,0,0,1.461.805c11.828,2.158,21.941,7.708,30.856,15.6,10.352,9.164,17.962,20.367,24.082,32.658,1.042,2.093,2.015,4.221,3.023,6.331.011.022.063.025.2.077.538-2.451,1.08-4.886,1.606-7.325q.923-4.277,1.819-8.56c.251-1.212.574-2.344,1.993-2.67,1.4-.321,2.241.452,2.938,1.5V61.5a5.654,5.654,0,0,0-.291.781c-1.72,7.941-3.448,15.88-5.128,23.83a4.008,4.008,0,0,1-1.745,2.806h-1.482Q218.153,81.887,206.7,74.851c-1.55-.952-1.986-2.35-1.149-3.618.782-1.183,2.148-1.39,3.588-.508q7.627,4.673,15.243,9.362c.522.321,1.048.637,1.688,1.025a1.8,1.8,0,0,0-.006-.535c-5.816-13.668-13.251-26.291-23.969-36.752-7.255-7.081-15.539-12.529-25.322-15.5-.377-.115-.763-.2-1.08-.281a68.347,68.347,0,0,1,2.241,6.516,20.441,20.441,0,0,1-2.776,16.34c-6.484,10-15.674,15.3-27.764,14.784-10.222-.437-19.35-9.493-19.873-19.54-.3-5.714,2.156-10.39,6.038-14.356,5.192-5.3,11.706-8.14,18.873-9.509,3.294-.629,6.668-.843,10.025-1.247a5.877,5.877,0,0,0-.573-.511c-6.909-4.922-14.633-8.137-22.641-10.736a95.909,95.909,0,0,0-32.275-4.923c-14.756.378-47.316,6.02-59.991,13.5-6.69,4.382-21.659,18.034-29.2,33.685C9.7,68.787,9.163,87.716,4.633,94.3,3.264,96.293,1.639,96.262,0,94.194V92.465c.068-.039.16-.061.2-.12,4.078-6.1,5.166-24.9,13.839-42.292,8.127-16.293,23.807-31.221,29.685-35.136C55.741,6.912,84,2.379,98.394.659c1.912-.228,3.826-.44,5.738-.659Zm47.949,26.028a43.962,43.962,0,0,0-12.644,1.907c-5.6,1.742-10.63,4.418-14.274,9.191a12.776,12.776,0,0,0-2.85,10.266,16.967,16.967,0,0,0,16.317,13.575c8.16.083,14.854-3.3,20.093-9.4,6.423-7.485,6.481-16.326.461-24.133a2.354,2.354,0,0,0-1.94-1.047c-1.723-.064-3.442-.23-5.163-.354" transform="matrix(-0.978, 0.208, -0.208, -0.978, 252.962, 93.678)" fill="#03ff9a"/>
</svg>
