<svg xmlns="http://www.w3.org/2000/svg" width="252.962" height="143.214" viewBox="0 0 252.962 143.214">
  <path id="Path_82" data-name="Path 82" d="M85.711,88.922c2.2-.245,4.408-.443,6.6-.742,14.364-1.963,28.011-6.134,40.449-13.7,3.2-1.949,5.978-4.6,8.965-6.907a3.721,3.721,0,0,1,1.461-.805c11.828-2.158,21.941-7.708,30.856-15.6C184.395,42,192,30.8,198.125,18.5c1.042-2.093,2.015-4.221,3.023-6.331.011-.022.063-.025.2-.077.538,2.451,1.08,4.886,1.606,7.325q.923,4.277,1.819,8.56c.251,1.212.574,2.344,1.993,2.67,1.4.321,2.241-.452,2.938-1.5V27.418a5.655,5.655,0,0,1-.291-.781c-1.72-7.941-3.448-15.88-5.128-23.83A4.008,4.008,0,0,0,202.545,0h-1.482q-11.458,7.035-22.915,14.071c-1.55.952-1.986,2.35-1.149,3.618.782,1.183,2.148,1.39,3.588.508q7.627-4.673,15.243-9.362c.522-.321,1.048-.637,1.688-1.025a1.8,1.8,0,0,1-.006.535C191.7,22.014,184.26,34.637,173.542,45.1,166.287,52.179,158,57.627,148.22,60.6c-.377.115-.763.2-1.08.281a68.347,68.347,0,0,0,2.241-6.516,20.442,20.442,0,0,0-2.776-16.34c-6.484-10-15.674-15.3-27.764-14.784-10.222.437-19.35,9.493-19.873,19.54-.3,5.714,2.156,10.39,6.038,14.356,5.192,5.3,11.706,8.14,18.873,9.509,3.294.629,6.668.843,10.025,1.247a5.877,5.877,0,0,1-.573.511c-6.909,4.922-14.633,8.137-22.641,10.736a95.91,95.91,0,0,1-32.275,4.923c-14.756-.378-47.316-6.02-59.991-13.5-6.69-4.382-21.659-18.034-29.2-33.685C-18.85,20.135-19.386,1.206-23.915-5.38c-1.369-1.99-2.994-1.959-4.633.109v1.729c.068.039.16.061.2.12,4.078,6.1,5.166,24.9,13.839,42.292C-6.383,55.161,9.3,70.09,15.176,74c12.017,8,40.28,12.538,54.67,14.258,1.912.228,3.826.44,5.738.659ZM133.66,62.894a43.962,43.962,0,0,1-12.644-1.907c-5.6-1.742-10.63-4.418-14.274-9.191a12.776,12.776,0,0,1-2.85-10.266,16.967,16.967,0,0,1,16.317-13.575c8.16-.083,14.854,3.3,20.093,9.4,6.423,7.485,6.481,16.326.461,24.133a2.354,2.354,0,0,1-1.94,1.047c-1.723.064-3.442.23-5.163.354" transform="matrix(-0.978, -0.208, 0.208, -0.978, 206.549, 130.58)" fill="#fff"/>
</svg>
