<svg xmlns="http://www.w3.org/2000/svg" width="225" height="90" viewBox="0 0 225 90">
  <g id="Group_4319" data-name="Group 4319" transform="translate(-912.5 -3227)">
    <rect id="Rectangle_49" data-name="Rectangle 49" width="225" height="90" rx="19" transform="translate(912.5 3227)" fill="#fff"/>
    <g id="Group_4305" data-name="Group 4305" transform="translate(962.5 3246)" style="mix-blend-mode: luminosity;isolation: isolate">
      <path id="Path_1" data-name="Path 1" d="M241.272,33.653a.365.365,0,0,1,.412.412V46.4q0,.362-.237.362a.4.4,0,0,1-.108-.016,1.743,1.743,0,0,1-.489-.195l-4.429-2.846q-.228-.143-.228.085-.008.732,0,1.2v1.2a.44.44,0,0,1-.506.488h-3.251a.368.368,0,0,1-.421-.412V34q0-.395.32-.345a1.249,1.249,0,0,1,.437.134l4.321,2.948a.507.507,0,0,0,.252.11c.112,0,.169-.1.169-.3V34.066q0-.429.487-.412.912.016,1.635,0Z" transform="translate(-231.97 -2.881)" fill="#252425"/>
      <path id="Path_2" data-name="Path 2" d="M254.808,34.21,260.863,46.2a.473.473,0,0,1,.059.2c0,.191-.2.286-.6.286h-2.611a1.855,1.855,0,0,1-.572-.051,1.052,1.052,0,0,1-.346-.437.949.949,0,0,0-.934-.522q-1.2.016-2.123,0h-2.1a.818.818,0,0,0-.809.488,1.082,1.082,0,0,1-.3.451,1.422,1.422,0,0,1-.573.071l-1.339-.008c-.292,0-.736,0-1.33-.008q-.608,0-.607-.3a.544.544,0,0,1,.068-.235l6.022-11.934a1.131,1.131,0,0,1,2.046,0m-.4,7.36q-.152-.3-.446-.9a.255.255,0,0,0-.177-.1.232.232,0,0,0-.176.109q-.169.313-.463.919-.1.236.134.269H254.3a.112.112,0,0,0,.127-.126.3.3,0,0,0-.026-.168" transform="translate(-233.226 -2.873)" fill="#252425"/>
      <path id="Path_3" data-name="Path 3" d="M270.07,33.626a.365.365,0,0,1,.412.412V41.8a5.946,5.946,0,0,0,.125.8.623.623,0,0,0,.646.363.633.633,0,0,0,.695-.582l.1-.581V34.047a.41.41,0,0,1,.135-.282.392.392,0,0,1,.279-.139h3.316a.4.4,0,0,1,.279.139.408.408,0,0,1,.134.282v7.807a4.59,4.59,0,0,1-1.474,3.41,4.916,4.916,0,0,1-6.932,0,4.669,4.669,0,0,1-1.448-3.449V34.038a.365.365,0,0,1,.413-.412Z" transform="translate(-234.911 -2.879)" fill="#252425"/>
      <path id="Path_4" data-name="Path 4" d="M281.7,33.681h8.885q.5,0,.5.388v3.108q0,.387-.5.387h-2.007c-.24,0-.359.135-.359.4v8.321a.366.366,0,0,1-.415.412h-3.316a.365.365,0,0,1-.413-.412V37.967c0-.269-.118-.4-.354-.4H281.7c-.337,0-.506-.129-.506-.387V34.069c0-.259.169-.388.506-.388" transform="translate(-236.184 -2.884)" fill="#252425"/>
      <path id="Rectangle_2" data-name="Rectangle 2" d="M.451,0h3.24a.452.452,0,0,1,.452.452V12.587a.45.45,0,0,1-.45.45H.451A.451.451,0,0,1,0,12.586V.451A.451.451,0,0,1,.451,0Z" transform="translate(58.643 30.781)" fill="#252425"/>
      <path id="Path_5" data-name="Path 5" d="M308.448,33.663a.365.365,0,0,1,.412.412v8.052q0,.429.4.43h3.436a.364.364,0,0,1,.412.412v3.318a.365.365,0,0,1-.412.413h-7.554a.369.369,0,0,1-.422-.413V34.075a.369.369,0,0,1,.422-.412Z" transform="translate(-238.199 -2.882)" fill="#252425"/>
      <path id="Path_6" data-name="Path 6" d="M321.705,33.626a.365.365,0,0,1,.412.412V41.8a5.856,5.856,0,0,0,.126.8.622.622,0,0,0,.645.363.633.633,0,0,0,.695-.582l.1-.581V34.047a.41.41,0,0,1,.135-.282.392.392,0,0,1,.278-.139h3.317a.39.39,0,0,1,.278.139.406.406,0,0,1,.135.282v7.807a4.59,4.59,0,0,1-1.474,3.41,4.916,4.916,0,0,1-6.931,0,4.668,4.668,0,0,1-1.448-3.449V34.038a.365.365,0,0,1,.413-.412Z" transform="translate(-239.335 -2.879)" fill="#252425"/>
      <path id="Path_7" data-name="Path 7" d="M342.257,40.289a3.161,3.161,0,0,1,1.3,2.526,3.328,3.328,0,0,1-1.844,2.931,6.7,6.7,0,0,1-3.52.952,7.049,7.049,0,0,1-2.6-.481,4.66,4.66,0,0,1-2.1-1.55.319.319,0,0,1-.042-.361.608.608,0,0,1,.261-.245l2.9-1.363a1.013,1.013,0,0,1,.732.075,2.839,2.839,0,0,0,.85.236,2.045,2.045,0,0,0,.758-.143q.472-.193.472-.531,0-.657-1.221-.64a7.461,7.461,0,0,1-1.475-.126,5.336,5.336,0,0,1-2.593-1.28,3.366,3.366,0,0,1,.522-5.634,6.4,6.4,0,0,1,3.546-1.011,6.751,6.751,0,0,1,2.88.624,4.253,4.253,0,0,1,2.13,1.97.572.572,0,0,1,.067.252c0,.181-.126.3-.379.363l-3.048,1.12c-.225.084-.377.1-.455.034l-.261-.186a1.61,1.61,0,0,0-.944-.244,2.008,2.008,0,0,0-.749.144q-.472.193-.472.521t.472.523a1.937,1.937,0,0,0,.749.144,7.061,7.061,0,0,1,2.139.4,5.987,5.987,0,0,1,1.937.976" transform="translate(-240.608 -2.881)" fill="#252425"/>
      <path id="Path_8" data-name="Path 8" d="M235.048,55.618a3.085,3.085,0,0,1-.2,1.115c-.175.438-.424.658-.747.658h-1.952v-.5h1.522c.211,0,.373-.14.486-.422a1.978,1.978,0,0,0,.131-.732,1.384,1.384,0,0,0-.177-.8.626.626,0,0,0-.486-.216h-.747a.78.78,0,0,1-.719-.57,2.471,2.471,0,0,1-.2-1.024,2.664,2.664,0,0,1,.2-1.044q.252-.6.719-.6h1.766v.495h-1.336a.5.5,0,0,0-.457.363,1.691,1.691,0,0,0-.122.663,1.617,1.617,0,0,0,.122.652.5.5,0,0,0,.457.363h.859q.458,0,.7.578a2.688,2.688,0,0,1,.177,1.021" transform="translate(-231.966 -4.409)" fill="#252425"/>
      <path id="Path_9" data-name="Path 9" d="M251.37,57.391h-.8V54.679H248.9v2.712h-.813V51.482h.813v2.7h1.662v-2.7h.8Z" transform="translate(-233.348 -4.409)" fill="#252425"/>
      <rect id="Rectangle_3" data-name="Rectangle 3" width="0.813" height="5.908" transform="translate(29.684 47.074)" fill="#252425"/>
      <path id="Path_10" data-name="Path 10" d="M281.278,53.281a3.167,3.167,0,0,1-.177,1.106q-.243.642-.729.641h-1.167v-.494h.737q.309,0,.467-.487a2.577,2.577,0,0,0,.112-.786,2.642,2.642,0,0,0-.112-.787c-.106-.331-.261-.5-.467-.5h-1.055V57.39h-.813V51.482h2.3q.476,0,.729.672a3.408,3.408,0,0,1,.177,1.127" transform="translate(-235.916 -4.409)" fill="#252425"/>
      <path id="Path_11" data-name="Path 11" d="M297.536,53.281a3.166,3.166,0,0,1-.177,1.106q-.243.642-.729.641h-1.167v-.494h.737c.206,0,.362-.163.467-.487a2.577,2.577,0,0,0,.112-.786,2.643,2.643,0,0,0-.112-.787c-.105-.331-.262-.5-.467-.5h-1.054V57.39h-.813V51.482h2.3q.477,0,.729.672a3.407,3.407,0,0,1,.177,1.127" transform="translate(-237.309 -4.409)" fill="#252425"/>
      <rect id="Rectangle_4" data-name="Rectangle 4" width="0.813" height="5.908" transform="translate(71.889 47.074)" fill="#252425"/>
      <path id="Path_12" data-name="Path 12" d="M327.465,57.391h-1.028l-1.587-4.146v4.146h-.616V51.482h.884l1.7,4.632V51.482h.645Z" transform="translate(-239.871 -4.409)" fill="#252425"/>
      <path id="Path_13" data-name="Path 13" d="M343.642,57.39h-2.2a.783.783,0,0,1-.71-.547,2.279,2.279,0,0,1-.2-.99V53.038a2.3,2.3,0,0,1,.2-1,.784.784,0,0,1,.71-.557h1.83v.495h-1.4c-.2,0-.351.132-.457.391a1.761,1.761,0,0,0-.122.67v2.815a1.677,1.677,0,0,0,.122.66c.112.255.264.381.457.381h1.046V54.668h-1.177v-.495h1.905Z" transform="translate(-241.267 -4.409)" fill="#252425"/>
      <path id="Path_14" data-name="Path 14" d="M362.246,10.216S342.362,19.237,340.51,29.78H329.373c.351-.509,5.2-7.469,10.531-10.521,0,0-13.161,2.113-21.6,10.521H300.48s19.555-19.564,61.766-19.564" transform="translate(-237.836 -0.873)" fill="#00222f"/>
      <path id="Path_15" data-name="Path 15" d="M299.469,16.691a24.7,24.7,0,0,1,4.139-3.587V4.827S304.159,0,312.713,0l1.38,9.657s10.622-7.036,10.622,4c0,0-19.059,6.886-25.935,15.25,0,0-2.139-9.386.689-12.214" transform="translate(-237.624 0.002)" fill="#008e9c"/>
    </g>
  </g>
</svg>
