<svg xmlns="http://www.w3.org/2000/svg" width="225" height="90" viewBox="0 0 225 90">
  <g id="Group_4325" data-name="Group 4325" transform="translate(-456.5 -3227.393)">
    <rect id="Rectangle_45" data-name="Rectangle 45" width="225" height="90" rx="19" transform="translate(456.5 3227.393)" fill="#fff"/>
    <g id="Group_4304" data-name="Group 4304" transform="translate(513.92 3236.571)" style="mix-blend-mode: luminosity;isolation: isolate">
      <g id="Group_17" data-name="Group 17" transform="translate(0.71 0)">
        <g id="Group_55" data-name="Group 55" transform="translate(0)">
          <path id="Path_130" data-name="Path 130" d="M.98.193H4.248a9.482,9.482,0,0,1,1.447.08,2.132,2.132,0,0,1,.853.338,2.1,2.1,0,0,1,.627.683,1.848,1.848,0,0,1,.251.956A1.936,1.936,0,0,1,6.278,4.024a2.156,2.156,0,0,1,1.148.742A1.965,1.965,0,0,1,7.827,6a2.426,2.426,0,0,1-.259,1.085,2.18,2.18,0,0,1-.708.842,2.332,2.332,0,0,1-1.107.388q-.413.045-1.991.056H.98ZM2.63,1.554v1.89H3.712q.965,0,1.2-.028a1.091,1.091,0,0,0,.667-.292.866.866,0,0,0,.243-.639.9.9,0,0,0-.209-.616.948.948,0,0,0-.622-.288q-.246-.027-1.411-.028Zm0,3.251V6.99H4.158A7.486,7.486,0,0,0,5.29,6.94a1.027,1.027,0,0,0,.6-.326,1,1,0,0,0,.231-.695A1.068,1.068,0,0,0,5.943,5.3a1.006,1.006,0,0,0-.516-.373A5.6,5.6,0,0,0,3.964,4.8Z" transform="translate(-0.98 -0.053)" fill="#642f88"/>
          <path id="Path_131" data-name="Path 131" d="M16.225,9.224V8.337a2.29,2.29,0,0,1-.851.748,2.386,2.386,0,0,1-1.112.273A2.177,2.177,0,0,1,13.192,9.1a1.548,1.548,0,0,1-.686-.736,3.285,3.285,0,0,1-.212-1.311V3.3h1.567V6.023a7.53,7.53,0,0,0,.086,1.531A.829.829,0,0,0,14.263,8a.964.964,0,0,0,.58.165,1.235,1.235,0,0,0,.719-.22A1.114,1.114,0,0,0,16,7.4a6.327,6.327,0,0,0,.117-1.6V3.3h1.567V9.224Z" transform="translate(-4.097 -0.91)" fill="#642f88"/>
          <path id="Path_132" data-name="Path 132" d="M21.206,7.484l1.572-.24a1.154,1.154,0,0,0,.407.694,1.377,1.377,0,0,0,.859.237,1.551,1.551,0,0,0,.914-.222.5.5,0,0,0,.206-.419.414.414,0,0,0-.112-.3,1.255,1.255,0,0,0-.525-.206,8.46,8.46,0,0,1-2.4-.764,1.524,1.524,0,0,1-.7-1.332,1.642,1.642,0,0,1,.608-1.294,2.84,2.84,0,0,1,1.885-.525,3.289,3.289,0,0,1,1.806.4,2.022,2.022,0,0,1,.814,1.171l-1.478.273a.913.913,0,0,0-.359-.53,1.317,1.317,0,0,0-.756-.184,1.705,1.705,0,0,0-.887.173.371.371,0,0,0-.178.318.347.347,0,0,0,.156.284,5.874,5.874,0,0,0,1.464.441,4.359,4.359,0,0,1,1.748.7,1.45,1.45,0,0,1,.49,1.166,1.789,1.789,0,0,1-.68,1.4,3.014,3.014,0,0,1-2.013.585,3.306,3.306,0,0,1-1.916-.49,2.262,2.262,0,0,1-.923-1.333" transform="translate(-6.552 -0.859)" fill="#642f88"/>
          <path id="Path_133" data-name="Path 133" d="M30.735.193H32.3v1.45H30.735Zm0,2.252H32.3V8.367H30.735Z" transform="translate(-9.177 -0.053)" fill="#642f88"/>
          <path id="Path_134" data-name="Path 134" d="M40.5,9.173H38.93V6.151a4.731,4.731,0,0,0-.1-1.24.875.875,0,0,0-.327-.438.931.931,0,0,0-.543-.156,1.258,1.258,0,0,0-.731.223,1.124,1.124,0,0,0-.443.591,5.086,5.086,0,0,0-.12,1.361V9.173H35.1V3.251h1.455v.87a2.428,2.428,0,0,1,2.9-.817,1.583,1.583,0,0,1,.649.477,1.755,1.755,0,0,1,.307.658A4.984,4.984,0,0,1,40.5,5.493Z" transform="translate(-10.379 -0.859)" fill="#642f88"/>
          <path id="Path_135" data-name="Path 135" d="M48,7.288l1.561.262a2.561,2.561,0,0,1-.951,1.308,2.794,2.794,0,0,1-1.626.448A2.65,2.65,0,0,1,44.7,8.3a3.4,3.4,0,0,1-.585-2.041,3.269,3.269,0,0,1,.769-2.306,2.533,2.533,0,0,1,1.947-.833,2.628,2.628,0,0,1,2.085.872,3.857,3.857,0,0,1,.73,2.673H45.718A1.587,1.587,0,0,0,46.1,7.748a1.184,1.184,0,0,0,.9.388.964.964,0,0,0,.619-.2A1.245,1.245,0,0,0,48,7.288M48.088,5.7a1.51,1.51,0,0,0-.351-1.035,1.132,1.132,0,0,0-1.662.02A1.452,1.452,0,0,0,45.746,5.7Z" transform="translate(-12.862 -0.859)" fill="#642f88"/>
          <path id="Path_136" data-name="Path 136" d="M52.748,7.484l1.572-.24a1.154,1.154,0,0,0,.407.694,1.377,1.377,0,0,0,.859.237,1.551,1.551,0,0,0,.914-.222.5.5,0,0,0,.206-.419.414.414,0,0,0-.112-.3,1.255,1.255,0,0,0-.525-.206,8.46,8.46,0,0,1-2.4-.764,1.524,1.524,0,0,1-.7-1.332,1.642,1.642,0,0,1,.608-1.294,2.84,2.84,0,0,1,1.885-.525,3.289,3.289,0,0,1,1.806.4,2.022,2.022,0,0,1,.814,1.171L56.6,4.957a.913.913,0,0,0-.359-.53,1.317,1.317,0,0,0-.756-.184,1.705,1.705,0,0,0-.887.173.371.371,0,0,0-.178.318.347.347,0,0,0,.156.284,5.874,5.874,0,0,0,1.464.441,4.36,4.36,0,0,1,1.748.7,1.45,1.45,0,0,1,.49,1.166,1.789,1.789,0,0,1-.68,1.4,3.014,3.014,0,0,1-2.013.585,3.306,3.306,0,0,1-1.916-.49,2.262,2.262,0,0,1-.923-1.333" transform="translate(-15.241 -0.859)" fill="#642f88"/>
          <path id="Path_137" data-name="Path 137" d="M61.514,7.484l1.572-.24a1.154,1.154,0,0,0,.407.694,1.379,1.379,0,0,0,.859.237,1.551,1.551,0,0,0,.914-.222.5.5,0,0,0,.206-.419.414.414,0,0,0-.112-.3,1.255,1.255,0,0,0-.525-.206,8.46,8.46,0,0,1-2.4-.764,1.524,1.524,0,0,1-.7-1.332,1.642,1.642,0,0,1,.608-1.294,2.84,2.84,0,0,1,1.885-.525,3.289,3.289,0,0,1,1.806.4,2.022,2.022,0,0,1,.814,1.171l-1.478.273a.913.913,0,0,0-.359-.53,1.317,1.317,0,0,0-.756-.184,1.705,1.705,0,0,0-.887.173.371.371,0,0,0-.178.318.347.347,0,0,0,.156.284,5.874,5.874,0,0,0,1.464.441,4.359,4.359,0,0,1,1.748.7,1.45,1.45,0,0,1,.491,1.166,1.789,1.789,0,0,1-.68,1.4,3.014,3.014,0,0,1-2.013.585,3.306,3.306,0,0,1-1.916-.49,2.262,2.262,0,0,1-.923-1.333" transform="translate(-17.656 -0.859)" fill="#642f88"/>
          <path id="Path_138" data-name="Path 138" d="M80.558,5.309l1.6.507A3.59,3.59,0,0,1,80.935,7.8a3.852,3.852,0,0,1-4.849-.462A4.261,4.261,0,0,1,75.037,4.3a4.469,4.469,0,0,1,1.054-3.17A3.614,3.614,0,0,1,78.862,0,3.4,3.4,0,0,1,81.3.886a3.227,3.227,0,0,1,.836,1.506l-1.634.39a1.689,1.689,0,0,0-1.723-1.372,1.86,1.86,0,0,0-1.475.652,3.2,3.2,0,0,0-.566,2.114A3.428,3.428,0,0,0,77.3,6.384a1.812,1.812,0,0,0,1.45.659,1.653,1.653,0,0,0,1.132-.419,2.428,2.428,0,0,0,.68-1.316" transform="translate(-21.381)" fill="#25a27d"/>
          <path id="Path_139" data-name="Path 139" d="M87.82,5.058,86.4,4.8a2.216,2.216,0,0,1,.825-1.271,3.021,3.021,0,0,1,1.74-.412,3.755,3.755,0,0,1,1.561.247,1.569,1.569,0,0,1,.722.63,3.238,3.238,0,0,1,.209,1.4l-.017,1.829a6.388,6.388,0,0,0,.075,1.153,3.359,3.359,0,0,0,.282.794h-1.55c-.041-.1-.091-.259-.151-.462-.026-.094-.044-.155-.056-.185a2.828,2.828,0,0,1-.859.586,2.481,2.481,0,0,1-.976.194,2.018,2.018,0,0,1-1.441-.5,1.652,1.652,0,0,1-.527-1.256,1.683,1.683,0,0,1,.24-.895,1.567,1.567,0,0,1,.672-.6,5.191,5.191,0,0,1,1.247-.364,8.6,8.6,0,0,0,1.522-.385V5.152a.813.813,0,0,0-.223-.644,1.336,1.336,0,0,0-.842-.193,1.125,1.125,0,0,0-.653.164,1.145,1.145,0,0,0-.379.578m2.1,1.271a9.564,9.564,0,0,1-.953.241,2.862,2.862,0,0,0-.853.272.655.655,0,0,0-.306.553.764.764,0,0,0,.246.568.855.855,0,0,0,.625.24,1.355,1.355,0,0,0,.809-.279.981.981,0,0,0,.373-.519,3.062,3.062,0,0,0,.062-.764Z" transform="translate(-24.467 -0.859)" fill="#25a27d"/>
          <path id="Path_140" data-name="Path 140" d="M98.042,2.507V3.756H96.972V6.143A5.8,5.8,0,0,0,97,6.987a.343.343,0,0,0,.139.2.446.446,0,0,0,.265.078,2.029,2.029,0,0,0,.63-.15l.134,1.215a3.108,3.108,0,0,1-1.238.235,1.96,1.96,0,0,1-.764-.143,1.109,1.109,0,0,1-.5-.368,1.445,1.445,0,0,1-.22-.61,7.634,7.634,0,0,1-.05-1.1V3.756H94.68V2.507H95.4V1.33L96.972.416V2.507Z" transform="translate(-26.793 -0.115)" fill="#25a27d"/>
          <path id="Path_141" data-name="Path 141" d="M101.836,5.058,100.414,4.8a2.216,2.216,0,0,1,.825-1.271,3.021,3.021,0,0,1,1.74-.412,3.755,3.755,0,0,1,1.561.247,1.569,1.569,0,0,1,.722.63,3.238,3.238,0,0,1,.209,1.4l-.017,1.829a6.387,6.387,0,0,0,.075,1.153,3.359,3.359,0,0,0,.282.794h-1.55c-.041-.1-.091-.259-.151-.462-.026-.094-.044-.155-.056-.185a2.828,2.828,0,0,1-.859.586,2.481,2.481,0,0,1-.976.194,2.018,2.018,0,0,1-1.441-.5,1.652,1.652,0,0,1-.527-1.256,1.683,1.683,0,0,1,.24-.895,1.567,1.567,0,0,1,.672-.6,5.192,5.192,0,0,1,1.247-.364,8.6,8.6,0,0,0,1.522-.385V5.152a.813.813,0,0,0-.223-.644,1.336,1.336,0,0,0-.842-.193,1.125,1.125,0,0,0-.653.164,1.145,1.145,0,0,0-.379.578m2.1,1.271a9.565,9.565,0,0,1-.953.241,2.854,2.854,0,0,0-.853.272.655.655,0,0,0-.306.553.764.764,0,0,0,.246.568.855.855,0,0,0,.625.24,1.355,1.355,0,0,0,.809-.279.981.981,0,0,0,.373-.519,3.061,3.061,0,0,0,.062-.764Z" transform="translate(-28.328 -0.859)" fill="#25a27d"/>
          <rect id="Rectangle_15" data-name="Rectangle 15" width="1.567" height="8.175" transform="translate(78.688 0.139)" fill="#25a27d"/>
          <path id="Path_142" data-name="Path 142" d="M112.944,3.3h1.667l1.416,4.2,1.383-4.2h1.623L116.943,9l-.374,1.032a4.2,4.2,0,0,1-.393.792,1.729,1.729,0,0,1-.429.443,1.88,1.88,0,0,1-.6.264,3.074,3.074,0,0,1-.8.095,4.115,4.115,0,0,1-.887-.095l-.14-1.227a3.452,3.452,0,0,0,.664.072.983.983,0,0,0,.809-.32,2.229,2.229,0,0,0,.4-.817Z" transform="translate(-31.824 -0.91)" fill="#25a27d"/>
          <path id="Path_143" data-name="Path 143" d="M121.972,7.484l1.572-.24a1.154,1.154,0,0,0,.407.694,1.379,1.379,0,0,0,.859.237,1.551,1.551,0,0,0,.914-.222.5.5,0,0,0,.206-.419.414.414,0,0,0-.112-.3,1.255,1.255,0,0,0-.525-.206,8.46,8.46,0,0,1-2.4-.764,1.524,1.524,0,0,1-.7-1.332,1.642,1.642,0,0,1,.608-1.294,2.84,2.84,0,0,1,1.885-.525,3.289,3.289,0,0,1,1.806.4,2.022,2.022,0,0,1,.814,1.171l-1.478.273a.913.913,0,0,0-.359-.53,1.317,1.317,0,0,0-.756-.184,1.705,1.705,0,0,0-.887.173.371.371,0,0,0-.178.318.347.347,0,0,0,.156.284,5.875,5.875,0,0,0,1.464.441,4.359,4.359,0,0,1,1.748.7,1.45,1.45,0,0,1,.491,1.166,1.789,1.789,0,0,1-.68,1.4,3.014,3.014,0,0,1-2.013.585,3.306,3.306,0,0,1-1.916-.49,2.262,2.262,0,0,1-.923-1.333" transform="translate(-34.311 -0.859)" fill="#25a27d"/>
          <path id="Path_144" data-name="Path 144" d="M133.97,2.507V3.756H132.9V6.143a5.806,5.806,0,0,0,.031.845.343.343,0,0,0,.139.2.446.446,0,0,0,.265.078,2.029,2.029,0,0,0,.63-.15l.134,1.215a3.108,3.108,0,0,1-1.238.235,1.96,1.96,0,0,1-.764-.143,1.109,1.109,0,0,1-.5-.368,1.445,1.445,0,0,1-.22-.61,7.631,7.631,0,0,1-.05-1.1V3.756h-.719V2.507h.719V1.33L132.9.416V2.507Z" transform="translate(-36.69 -0.115)" fill="#25a27d"/>
          <path id="Path_145" data-name="Path 145" d="M14.721,27.912l2.651-6.9h.984l2.826,6.9h-1.04l-.806-2.091H16.449l-.758,2.091Zm1.992-2.835h2.34l-.72-1.912q-.33-.871-.49-1.432a8.766,8.766,0,0,1-.372,1.319Z" transform="translate(-4.765 -5.787)" fill="#555"/>
          <path id="Path_146" data-name="Path 146" d="M24.5,28.593v-5h.763V24.3a1.8,1.8,0,0,1,1.592-.824,2.081,2.081,0,0,1,.831.162,1.3,1.3,0,0,1,.567.426,1.639,1.639,0,0,1,.264.626,4.885,4.885,0,0,1,.047.825v3.075h-.848V25.55a2.286,2.286,0,0,0-.1-.775.816.816,0,0,0-.351-.409,1.112,1.112,0,0,0-.59-.154,1.372,1.372,0,0,0-.935.344,1.694,1.694,0,0,0-.393,1.3v2.731Z" transform="translate(-7.458 -6.468)" fill="#555"/>
          <rect id="Rectangle_16" data-name="Rectangle 16" width="0.914" height="6.903" transform="translate(25.344 15.221)" fill="#555"/>
          <path id="Path_147" data-name="Path 147" d="M39.295,28.593v-5h.763V24.3a1.8,1.8,0,0,1,1.592-.824,2.081,2.081,0,0,1,.831.162,1.3,1.3,0,0,1,.567.426,1.639,1.639,0,0,1,.264.626,4.885,4.885,0,0,1,.047.825v3.075h-.848V25.55a2.286,2.286,0,0,0-.1-.775.816.816,0,0,0-.351-.409,1.112,1.112,0,0,0-.59-.154,1.372,1.372,0,0,0-.935.344,1.694,1.694,0,0,0-.393,1.3v2.731Z" transform="translate(-11.535 -6.468)" fill="#555"/>
          <path id="Path_148" data-name="Path 148" d="M46.7,21.008h.848v.975H46.7Zm0,1.9h.848v5H46.7Z" transform="translate(-13.576 -5.787)" fill="#555"/>
          <path id="Path_149" data-name="Path 149" d="M51.328,27.214l.122.748a3.109,3.109,0,0,1-.64.075,1.452,1.452,0,0,1-.716-.146.815.815,0,0,1-.358-.384,3.041,3.041,0,0,1-.1-1V23.63h-.622v-.659h.622V21.733l.843-.509v1.747h.852v.659h-.852v2.924a1.491,1.491,0,0,0,.044.467.353.353,0,0,0,.146.164.566.566,0,0,0,.29.061,2.779,2.779,0,0,0,.372-.033" transform="translate(-14.212 -5.847)" fill="#555"/>
          <path id="Path_150" data-name="Path 150" d="M53.36,21.008h.848v.975H53.36Zm0,1.9h.848v5H53.36Z" transform="translate(-15.41 -5.787)" fill="#555"/>
          <path id="Path_151" data-name="Path 151" d="M59.464,27.976a3.162,3.162,0,0,1-.906.565,2.628,2.628,0,0,1-.935.164,1.816,1.816,0,0,1-1.266-.4,1.326,1.326,0,0,1-.443-1.029,1.368,1.368,0,0,1,.167-.671,1.382,1.382,0,0,1,.438-.488,2.064,2.064,0,0,1,.61-.277,5.956,5.956,0,0,1,.754-.127,7.765,7.765,0,0,0,1.511-.292c0-.117.005-.19.005-.222a.936.936,0,0,0-.241-.73,1.416,1.416,0,0,0-.965-.288,1.5,1.5,0,0,0-.883.209,1.285,1.285,0,0,0-.422.742l-.829-.113a2.049,2.049,0,0,1,.372-.859,1.628,1.628,0,0,1,.748-.5,3.333,3.333,0,0,1,1.135-.177,3,3,0,0,1,1.04.151,1.366,1.366,0,0,1,.588.379,1.326,1.326,0,0,1,.264.577,4.764,4.764,0,0,1,.043.782V26.5a11.957,11.957,0,0,0,.054,1.5,1.873,1.873,0,0,0,.214.6h-.885a1.8,1.8,0,0,1-.17-.617m-.07-1.893a6.226,6.226,0,0,1-1.385.32,3.17,3.17,0,0,0-.739.17.739.739,0,0,0-.335.275.75.75,0,0,0,.139.968,1.1,1.1,0,0,0,.751.226,1.749,1.749,0,0,0,.871-.214,1.322,1.322,0,0,0,.561-.586,2.055,2.055,0,0,0,.136-.848Z" transform="translate(-16.113 -6.468)" fill="#555"/>
          <path id="Path_152" data-name="Path 152" d="M65.387,27.214l.122.748a3.109,3.109,0,0,1-.64.075,1.452,1.452,0,0,1-.716-.146.815.815,0,0,1-.358-.384,3.041,3.041,0,0,1-.1-1V23.63H63.07v-.659h.622V21.733l.843-.509v1.747h.852v.659h-.852v2.924a1.491,1.491,0,0,0,.044.467.353.353,0,0,0,.146.164.566.566,0,0,0,.29.061,2.779,2.779,0,0,0,.372-.033" transform="translate(-18.085 -5.847)" fill="#555"/>
          <path id="Path_153" data-name="Path 153" d="M67.418,21.008h.848v.975h-.848Zm0,1.9h.848v5h-.848Z" transform="translate(-19.283 -5.787)" fill="#555"/>
          <path id="Path_154" data-name="Path 154" d="M71.563,28.636l-1.9-5h.895l1.074,2.994q.174.486.32,1.008.113-.4.315-.951l1.111-3.051h.872l-1.893,5Z" transform="translate(-19.9 -6.511)" fill="#555"/>
          <path id="Path_155" data-name="Path 155" d="M80.34,26.982l.876.109a2.14,2.14,0,0,1-.767,1.191,2.6,2.6,0,0,1-3.172-.252,2.64,2.64,0,0,1-.643-1.9,2.762,2.762,0,0,1,.65-1.958,2.2,2.2,0,0,1,1.686-.7,2.139,2.139,0,0,1,1.639.682,2.713,2.713,0,0,1,.635,1.921q0,.075,0,.226H77.51a1.924,1.924,0,0,0,.466,1.262,1.388,1.388,0,0,0,1.045.438,1.3,1.3,0,0,0,.8-.245,1.627,1.627,0,0,0,.522-.782m-2.783-1.37h2.792a1.69,1.69,0,0,0-.32-.946,1.3,1.3,0,0,0-1.05-.49,1.348,1.348,0,0,0-.982.391,1.549,1.549,0,0,0-.441,1.045" transform="translate(-21.821 -6.468)" fill="#555"/>
          <path id="Path_156" data-name="Path 156" d="M88.223,27.912v-6.9h2.59a3.212,3.212,0,0,1,1.269.209,1.632,1.632,0,0,1,.749.646,1.7,1.7,0,0,1,.271.911,1.566,1.566,0,0,1-.241.834,1.715,1.715,0,0,1-.725.631,1.8,1.8,0,0,1,.963.626,1.679,1.679,0,0,1,.337,1.045,2.012,2.012,0,0,1-.205.9,1.746,1.746,0,0,1-.506.643,2.118,2.118,0,0,1-.756.341,4.6,4.6,0,0,1-1.114.115Zm.914-4h1.493a3.321,3.321,0,0,0,.872-.08.966.966,0,0,0,.525-.343.987.987,0,0,0,.177-.6,1.113,1.113,0,0,0-.164-.6.836.836,0,0,0-.471-.358,3.933,3.933,0,0,0-1.051-.1H89.137Zm0,3.188h1.719a3.991,3.991,0,0,0,.622-.033A1.5,1.5,0,0,0,92,26.877a1,1,0,0,0,.348-.384,1.2,1.2,0,0,0,.137-.582,1.147,1.147,0,0,0-.2-.671,1.044,1.044,0,0,0-.549-.4,3.374,3.374,0,0,0-1.01-.116h-1.6Z" transform="translate(-25.014 -5.788)" fill="#555"/>
          <path id="Path_157" data-name="Path 157" d="M96.784,30.561l-.094-.8a1.9,1.9,0,0,0,.485.075.936.936,0,0,0,.452-.094.775.775,0,0,0,.278-.264,4.116,4.116,0,0,0,.259-.631c.016-.047.041-.117.075-.207l-1.9-5.011h.914l1.04,2.9q.2.551.363,1.159a11.274,11.274,0,0,1,.348-1.14l1.069-2.915h.848l-1.9,5.086a9.914,9.914,0,0,1-.475,1.135,1.67,1.67,0,0,1-.518.614,1.223,1.223,0,0,1-.7.2,1.7,1.7,0,0,1-.546-.1" transform="translate(-27.25 -6.511)" fill="#555"/>
        </g>
      </g>
      <path id="Path_158" data-name="Path 158" d="M132.213,48.3V31.488H115.4Z" transform="translate(-31.791 -8.675)" fill="#259e79"/>
      <g id="Group_19" data-name="Group 19" transform="translate(0 22.904)">
        <g id="Group_21" data-name="Group 21">
          <path id="Path_159" data-name="Path 159" d="M0,59.572A14.992,14.992,0,0,1,4.535,48.446a15.521,15.521,0,0,1,11.358-4.471,17.97,17.97,0,0,1,4.047.445,14.516,14.516,0,0,1,3.2,1.081q1.272.636,2.247,1.25a8.567,8.567,0,0,1,1.44,1.081l.424.424L23.819,53.85q-.381-.339-1.059-.848a15.231,15.231,0,0,0-2.671-1.377,9.628,9.628,0,0,0-3.857-.869A7.968,7.968,0,0,0,9.9,53.3a8.953,8.953,0,0,0-2.226,6.1A9.633,9.633,0,0,0,9.96,65.781a7.743,7.743,0,0,0,6.273,2.734,9.55,9.55,0,0,0,4.047-.932,11.182,11.182,0,0,0,2.989-1.865l1.017-.932L28.1,70.21a7.24,7.24,0,0,1-.509.551,16.687,16.687,0,0,1-1.5,1.208,17.824,17.824,0,0,1-2.479,1.547A16.92,16.92,0,0,1,20.2,74.745a16.873,16.873,0,0,1-4.3.551,15.472,15.472,0,0,1-11.465-4.45A15.317,15.317,0,0,1,0,59.572" transform="translate(0 -35.019)" fill="#642f86"/>
          <path id="Path_160" data-name="Path 160" d="M88.766,70.94l3.894-5.63q.381.339,1.059.868a14.356,14.356,0,0,0,2.582,1.4,8.7,8.7,0,0,0,3.6.868,4.209,4.209,0,0,0,2.244-.572,1.952,1.952,0,0,0-.085-3.386,10.282,10.282,0,0,0-2.518-1.292,34.431,34.431,0,0,1-3.281-1.418,28.8,28.8,0,0,1-3.281-1.863,8.114,8.114,0,0,1-2.518-2.731,7.639,7.639,0,0,1-1.016-3.936,8.332,8.332,0,0,1,3.069-6.688,11.462,11.462,0,0,1,7.641-2.582,15.732,15.732,0,0,1,5.313.868,11.183,11.183,0,0,1,3.407,1.714l1.016.846-3.132,6.054q-.34-.3-.953-.741a13.666,13.666,0,0,0-2.371-1.185,8.664,8.664,0,0,0-3.365-.74,4.2,4.2,0,0,0-2.265.593,1.956,1.956,0,0,0-.952,1.778q0,1.015,1.4,1.82a23.678,23.678,0,0,0,3.407,1.566,41.936,41.936,0,0,1,4.022,1.779,9.416,9.416,0,0,1,3.407,2.942,7.611,7.611,0,0,1,1.4,4.593,8.841,8.841,0,0,1-2.879,6.667,10.853,10.853,0,0,1-7.789,2.73,16.528,16.528,0,0,1-3.852-.444,14.186,14.186,0,0,1-3.112-1.08,23.716,23.716,0,0,1-2.222-1.27,7.384,7.384,0,0,1-1.4-1.1Z" transform="translate(-24.454 -35.019)" fill="#642f86"/>
          <path id="Path_161" data-name="Path 161" d="M2.993,96.407a1.056,1.056,0,0,1-.183.621,1.156,1.156,0,0,1-.511.4,1.9,1.9,0,0,1-.753.14q-.118,0-.291-.015A3.225,3.225,0,0,1,.8,97.47a3.6,3.6,0,0,1-.594-.2v-.938a4.142,4.142,0,0,0,.569.3,1.506,1.506,0,0,0,.6.118.522.522,0,0,0,.382-.1.286.286,0,0,0,.087-.183.313.313,0,0,0-.149-.261,2.174,2.174,0,0,0-.433-.219A3.4,3.4,0,0,1,.707,95.7a1.308,1.308,0,0,1-.388-.39,1,1,0,0,1-.151-.554,1.053,1.053,0,0,1,.151-.559,1.048,1.048,0,0,1,.463-.4,1.754,1.754,0,0,1,.761-.149,2.665,2.665,0,0,1,.592.062,2.565,2.565,0,0,1,.448.139,1.873,1.873,0,0,1,.243.121v.9a3.11,3.11,0,0,0-.523-.3,1.454,1.454,0,0,0-.616-.133.47.47,0,0,0-.312.083.258.258,0,0,0-.1.2.253.253,0,0,0,.1.2,1.654,1.654,0,0,0,.345.2,6.837,6.837,0,0,1,.706.372,1.388,1.388,0,0,1,.415.382.918.918,0,0,1,.151.539" transform="translate(-0.047 -48.702)" fill="#642f86"/>
          <path id="Path_162" data-name="Path 162" d="M8.986,95.6a2.01,2.01,0,0,1-.246.985A1.787,1.787,0,0,1,8,97.3a2.455,2.455,0,0,1-1.188.265,2.412,2.412,0,0,1-1.2-.275,1.794,1.794,0,0,1-.73-.725,2.067,2.067,0,0,1,0-1.926,1.774,1.774,0,0,1,.729-.723,2.437,2.437,0,0,1,1.2-.275,2.667,2.667,0,0,1,.944.157,1.912,1.912,0,0,1,.683.426,1.814,1.814,0,0,1,.405.625,2.067,2.067,0,0,1,.138.751m-1.174,0a1.148,1.148,0,0,0-.064-.393.81.81,0,0,0-.191-.309.882.882,0,0,0-.313-.2,1.158,1.158,0,0,0-.427-.072.981.981,0,1,0,0,1.961,1.092,1.092,0,0,0,.54-.126.828.828,0,0,0,.338-.348,1.087,1.087,0,0,0,.116-.509" transform="translate(-1.281 -48.701)" fill="#642f86"/>
          <path id="Path_163" data-name="Path 163" d="M14.8,97.226a2.771,2.771,0,0,1-.485.2,3.086,3.086,0,0,1-.5.106,4.215,4.215,0,0,1-.522.032,2.713,2.713,0,0,1-.9-.137,1.937,1.937,0,0,1-.686-.406,1.724,1.724,0,0,1-.436-.629,2.1,2.1,0,0,1-.145-.79,2.038,2.038,0,0,1,.17-.864,1.67,1.67,0,0,1,.478-.617,2.052,2.052,0,0,1,.7-.363,2.883,2.883,0,0,1,.829-.117,4.5,4.5,0,0,1,1.475.288v1.015a4.142,4.142,0,0,0-.562-.293,1.664,1.664,0,0,0-.652-.117,1.477,1.477,0,0,0-.623.133,1.156,1.156,0,0,0-.466.377,1.007,1.007,0,0,0-.022,1.1,1.1,1.1,0,0,0,.429.383,1.327,1.327,0,0,0,.619.142,1.977,1.977,0,0,0,.527-.068,2.4,2.4,0,0,0,.417-.15,3.684,3.684,0,0,0,.348-.2Z" transform="translate(-3.065 -48.7)" fill="#642f86"/>
          <rect id="Rectangle_18" data-name="Rectangle 18" width="1.152" height="3.822" transform="translate(12.398 44.99)" fill="#642f86"/>
          <path id="Path_164" data-name="Path 164" d="M23.906,97.528h-1.18l-.312-.775h-1.66l-.317.775h-1.18l1.688-3.822h1.274ZM22.149,96.09,21.588,94.7l-.564,1.4Z" transform="translate(-5.305 -48.719)" fill="#642f86"/>
          <path id="Path_165" data-name="Path 165" d="M29.12,97.526h-2.9l0-3.822h1.153v2.906h1.75Z" transform="translate(-7.222 -48.719)" fill="#642f86"/>
          <rect id="Rectangle_19" data-name="Rectangle 19" width="1.152" height="3.822" transform="translate(24.023 44.985)" fill="#642f86"/>
          <path id="Path_166" data-name="Path 166" d="M40.37,97.521H39.217V95.307L38.178,96.59h-.091l-1.043-1.282v2.214H35.925V93.7h1.045l1.175,1.434,1.18-1.435h1.045Z" transform="translate(-9.896 -48.717)" fill="#642f86"/>
          <path id="Path_167" data-name="Path 167" d="M46.544,94.9a1.222,1.222,0,0,1-.072.415,1.112,1.112,0,0,1-.236.377,1.167,1.167,0,0,1-.439.284,1.766,1.766,0,0,1-.652.109h-.756v1.433H43.236V93.7h1.908a1.765,1.765,0,0,1,.652.11,1.184,1.184,0,0,1,.441.287,1.106,1.106,0,0,1,.235.383,1.26,1.26,0,0,1,.073.422m-1.174.006a.405.405,0,0,0-.162-.374,1.179,1.179,0,0,0-.577-.1h-.243v.921h.249a2.065,2.065,0,0,0,.441-.036.36.36,0,0,0,.223-.133.475.475,0,0,0,.069-.278" transform="translate(-11.911 -48.716)" fill="#642f86"/>
          <path id="Path_168" data-name="Path 168" d="M51.885,97.515h-1.18l-.312-.775h-1.66l-.317.775h-1.18L48.925,93.7H50.2Zm-1.757-1.438-.561-1.395L49,96.078Z" transform="translate(-13.013 -48.716)" fill="#642f86"/>
          <path id="Path_169" data-name="Path 169" d="M57.414,97.206a2.771,2.771,0,0,1-.485.2,3.085,3.085,0,0,1-.5.106,4.215,4.215,0,0,1-.522.032,2.713,2.713,0,0,1-.9-.137A1.937,1.937,0,0,1,54.325,97a1.725,1.725,0,0,1-.436-.629,2.1,2.1,0,0,1-.145-.79,2.038,2.038,0,0,1,.17-.864,1.664,1.664,0,0,1,.478-.617,2.052,2.052,0,0,1,.7-.363,2.883,2.883,0,0,1,.829-.117,4.5,4.5,0,0,1,1.475.288v1.015a4.144,4.144,0,0,0-.561-.293,1.664,1.664,0,0,0-.652-.117,1.477,1.477,0,0,0-.623.133,1.156,1.156,0,0,0-.466.377,1.007,1.007,0,0,0-.022,1.1,1.1,1.1,0,0,0,.429.383,1.327,1.327,0,0,0,.619.142,1.976,1.976,0,0,0,.527-.068,2.4,2.4,0,0,0,.417-.15,3.847,3.847,0,0,0,.348-.2Z" transform="translate(-14.806 -48.695)" fill="#642f86"/>
          <path id="Path_170" data-name="Path 170" d="M63.277,94.618h-1.4v2.892h-1.15V94.619h-1.4V93.69l3.951,0Z" transform="translate(-16.343 -48.714)" fill="#642f86"/>
          <path id="Path_171" data-name="Path 171" d="M70.325,96.376a1.056,1.056,0,0,1-.183.621,1.147,1.147,0,0,1-.511.4,1.9,1.9,0,0,1-.753.14c-.079,0-.176-.005-.291-.014a3.329,3.329,0,0,1-.457-.084,3.6,3.6,0,0,1-.595-.2V96.3a4.213,4.213,0,0,0,.569.3,1.507,1.507,0,0,0,.6.118.525.525,0,0,0,.382-.1.289.289,0,0,0,.087-.183.315.315,0,0,0-.149-.261,2.154,2.154,0,0,0-.433-.219,3.4,3.4,0,0,1-.551-.288,1.3,1.3,0,0,1-.388-.39,1,1,0,0,1-.151-.554,1.059,1.059,0,0,1,.151-.559,1.048,1.048,0,0,1,.463-.4,1.756,1.756,0,0,1,.761-.149,2.661,2.661,0,0,1,.592.062,2.546,2.546,0,0,1,.448.139,1.822,1.822,0,0,1,.243.121v.9a3.1,3.1,0,0,0-.522-.3,1.46,1.46,0,0,0-.617-.133.471.471,0,0,0-.312.083.258.258,0,0,0-.1.2.249.249,0,0,0,.1.2,1.654,1.654,0,0,0,.345.2,6.834,6.834,0,0,1,.706.372,1.4,1.4,0,0,1,.416.382.924.924,0,0,1,.15.539" transform="translate(-18.595 -48.693)" fill="#642f86"/>
          <path id="Path_172" data-name="Path 172" d="M75.632,94.886a1.2,1.2,0,0,1-.074.414,1.082,1.082,0,0,1-.235.378,1.171,1.171,0,0,1-.44.284,1.765,1.765,0,0,1-.651.109h-.756v1.433H72.324V93.685H74.23a1.763,1.763,0,0,1,.652.11,1.169,1.169,0,0,1,.44.287,1.088,1.088,0,0,1,.235.383,1.268,1.268,0,0,1,.074.422m-1.174.006a.407.407,0,0,0-.162-.374,1.181,1.181,0,0,0-.577-.1h-.243v.921h.249a2.065,2.065,0,0,0,.441-.036.362.362,0,0,0,.223-.133.475.475,0,0,0,.069-.278" transform="translate(-19.924 -48.713)" fill="#642f86"/>
          <path id="Path_173" data-name="Path 173" d="M80.5,97.5H77.618V93.682h2.834v.767H78.769v.7h1.6v.769h-1.6v.816H80.5Z" transform="translate(-21.382 -48.712)" fill="#642f86"/>
          <path id="Path_174" data-name="Path 174" d="M85.832,97.193a2.834,2.834,0,0,1-.485.2,3.128,3.128,0,0,1-.5.106,4.225,4.225,0,0,1-.523.032,2.708,2.708,0,0,1-.895-.137,1.93,1.93,0,0,1-.686-.406,1.716,1.716,0,0,1-.436-.629,2.1,2.1,0,0,1-.146-.79,2.049,2.049,0,0,1,.17-.864,1.665,1.665,0,0,1,.479-.617,2.049,2.049,0,0,1,.7-.363,2.888,2.888,0,0,1,.83-.117,4.511,4.511,0,0,1,1.474.288V94.91a4.1,4.1,0,0,0-.562-.293A1.671,1.671,0,0,0,84.6,94.5a1.477,1.477,0,0,0-.623.133,1.163,1.163,0,0,0-.467.377,1.011,1.011,0,0,0-.022,1.1,1.1,1.1,0,0,0,.43.383,1.324,1.324,0,0,0,.619.142,1.982,1.982,0,0,0,.527-.068,2.391,2.391,0,0,0,.417-.15,3.6,3.6,0,0,0,.349-.2Z" transform="translate(-22.634 -48.691)" fill="#642f86"/>
          <rect id="Rectangle_20" data-name="Rectangle 20" width="1.152" height="3.822" transform="translate(63.865 44.967)" fill="#642f86"/>
          <path id="Path_175" data-name="Path 175" d="M94.94,97.5H93.76l-.312-.774h-1.66l-.317.775h-1.18l1.688-3.823h1.274Zm-1.757-1.438-.56-1.395-.565,1.4Z" transform="translate(-24.874 -48.71)" fill="#642f86"/>
          <path id="Path_176" data-name="Path 176" d="M100.155,97.494h-2.9l0-3.822H98.4V96.58h1.75Z" transform="translate(-26.791 -48.71)" fill="#642f86"/>
          <rect id="Rectangle_21" data-name="Rectangle 21" width="1.153" height="3.822" transform="translate(73.926 44.962)" fill="#642f86"/>
          <path id="Path_177" data-name="Path 177" d="M107.416,96.359a1.056,1.056,0,0,1-.183.621,1.153,1.153,0,0,1-.511.4,1.913,1.913,0,0,1-.753.139c-.079,0-.176-.005-.291-.014a3.329,3.329,0,0,1-.457-.084,3.574,3.574,0,0,1-.595-.2v-.938a4.216,4.216,0,0,0,.569.3,1.507,1.507,0,0,0,.6.118.525.525,0,0,0,.383-.1.289.289,0,0,0,.087-.183.315.315,0,0,0-.149-.261,2.154,2.154,0,0,0-.433-.219,3.4,3.4,0,0,1-.551-.288,1.308,1.308,0,0,1-.388-.39,1.008,1.008,0,0,1-.151-.554,1.014,1.014,0,0,1,.614-.957,1.756,1.756,0,0,1,.761-.149,2.661,2.661,0,0,1,.592.062,2.544,2.544,0,0,1,.448.139,1.824,1.824,0,0,1,.243.121v.9a3.1,3.1,0,0,0-.522-.3,1.46,1.46,0,0,0-.617-.133.47.47,0,0,0-.312.083.258.258,0,0,0-.1.2.248.248,0,0,0,.1.2,1.654,1.654,0,0,0,.345.2,6.828,6.828,0,0,1,.706.372,1.409,1.409,0,0,1,.416.382.925.925,0,0,1,.15.539" transform="translate(-28.813 -48.689)" fill="#642f86"/>
          <path id="Path_178" data-name="Path 178" d="M112.969,94.595h-1.4v2.892h-1.15V94.6h-1.4v-.929l3.951,0Z" transform="translate(-30.033 -48.707)" fill="#642f86"/>
          <path id="Path_179" data-name="Path 179" d="M117.859,96.355a1.056,1.056,0,0,1-.183.621,1.147,1.147,0,0,1-.511.4,1.9,1.9,0,0,1-.753.14c-.079,0-.176-.005-.291-.014a3.329,3.329,0,0,1-.457-.084,3.576,3.576,0,0,1-.595-.2v-.938a4.214,4.214,0,0,0,.569.3,1.506,1.506,0,0,0,.6.118.526.526,0,0,0,.383-.1.29.29,0,0,0,.087-.183.315.315,0,0,0-.149-.261,2.155,2.155,0,0,0-.433-.219,3.4,3.4,0,0,1-.551-.288,1.308,1.308,0,0,1-.388-.39,1.008,1.008,0,0,1-.151-.554,1.014,1.014,0,0,1,.614-.957,1.756,1.756,0,0,1,.761-.149,2.661,2.661,0,0,1,.592.062,2.545,2.545,0,0,1,.448.139,1.824,1.824,0,0,1,.243.121v.9a3.1,3.1,0,0,0-.522-.3,1.46,1.46,0,0,0-.617-.133.47.47,0,0,0-.312.083.258.258,0,0,0-.1.2.25.25,0,0,0,.1.2,1.655,1.655,0,0,0,.345.2,6.833,6.833,0,0,1,.706.372,1.409,1.409,0,0,1,.416.382.925.925,0,0,1,.15.539" transform="translate(-31.69 -48.687)" fill="#642f86"/>
          <path id="Path_180" data-name="Path 180" d="M120.885,36.971v8.65h8.65Z" transform="translate(-33.302 -33.089)" fill="#642f86"/>
          <path id="Path_181" data-name="Path 181" d="M64.029,67.76l8.236-9.97V74.825H80.6v-29.4h-8.36L64.013,56.01Z" transform="translate(-17.635 -35.417)" fill="#259e79"/>
          <path id="Path_182" data-name="Path 182" d="M57.738,67.76l-8.48-9.97V74.825H41.177v-29.4h8.04L57.722,56.01V67.772" transform="translate(-11.344 -35.417)" fill="#642f86"/>
          <path id="Path_183" data-name="Path 183" d="M144.534,32.3h-1.356v3.808h-.836V32.3h-1.356v-.687h3.547Z" transform="translate(-38.839 -31.613)" fill="#642f86"/>
          <path id="Path_184" data-name="Path 184" d="M151.573,31.613v4.495h-.737V33.2c0-.117.007-.241.019-.377L149.5,35.38a.314.314,0,0,1-.3.183h-.118a.313.313,0,0,1-.295-.183l-1.374-2.561q.01.1.015.2c0,.066.007.128.007.183v2.9H146.7V31.613h.631c.038,0,.07,0,.1,0a.278.278,0,0,1,.073.015.177.177,0,0,1,.059.041.334.334,0,0,1,.051.075l1.346,2.5c.036.066.068.135.1.205s.06.143.088.217c.03-.077.059-.151.091-.222s.064-.141.1-.207l1.328-2.49a.313.313,0,0,1,.052-.075.19.19,0,0,1,.061-.041.278.278,0,0,1,.073-.015c.027,0,.059,0,.1,0Z" transform="translate(-40.413 -31.613)" fill="#642f86"/>
        </g>
      </g>
    </g>
  </g>
</svg>
