<svg xmlns="http://www.w3.org/2000/svg" width="225" height="90" viewBox="0 0 225 90">
  <g id="Group_4324" data-name="Group 4324" transform="translate(-228.5 -3227)">
    <rect id="Rectangle_42" data-name="Rectangle 42" width="225" height="90" rx="19" transform="translate(228.5 3227)" fill="#fff"/>
    <g id="Group_12" data-name="Group 12" transform="translate(-192.5 2977)" style="mix-blend-mode: luminosity;isolation: isolate">
      <g id="Group_11" data-name="Group 11" transform="translate(442 274)">
        <g id="Group_1" data-name="Group 1" transform="translate(0 25.214)">
          <path id="Path_1" data-name="Path 1" d="M49.481,116.409H55.4l6.462,16.576H55.8l-.866-2.435H49.668l-.819,2.435h-5.9Zm2.88,5.783L51,126.289H53.7Z" transform="translate(-42.949 -115.755)" fill="#187c9c"/>
          <path id="Path_2" data-name="Path 2" d="M100.619,123.623a8.951,8.951,0,0,1,.7-3.605,8.283,8.283,0,0,1,1.92-2.763,8.487,8.487,0,0,1,2.868-1.768,9.932,9.932,0,0,1,3.524-.621,10.556,10.556,0,0,1,3.629.621,8.4,8.4,0,0,1,2.856,1.674l-3.418,4.121a3.017,3.017,0,0,0-1.171-.925,3.78,3.78,0,0,0-1.568-.316,3.471,3.471,0,0,0-1.311.246,3.084,3.084,0,0,0-1.065.714,3.309,3.309,0,0,0-.714,1.135,4.1,4.1,0,0,0-.257,1.487,3.762,3.762,0,0,0,.269,1.463,3.5,3.5,0,0,0,.726,1.112,3.079,3.079,0,0,0,1.065.714,3.408,3.408,0,0,0,1.288.246,3.247,3.247,0,0,0,1.65-.4,3.492,3.492,0,0,0,1.089-.936l3.418,4.1a8.252,8.252,0,0,1-2.762,1.791,10.429,10.429,0,0,1-7.247.035,8.537,8.537,0,0,1-2.868-1.791,8.446,8.446,0,0,1-1.92-2.763A8.807,8.807,0,0,1,100.619,123.623Z" transform="translate(-83.107 -114.681)"/>
          <path id="Path_3" data-name="Path 3" d="M159.841,132.985h-5.572v-11.87H150.2v-4.706h13.72v4.706h-4.074Z" transform="translate(-117.628 -115.755)"/>
          <path id="Path_4" data-name="Path 4" d="M199.462,116.409h5.619v16.576h-5.619Z" transform="translate(-151.935 -115.755)"/>
          <path id="Path_5" data-name="Path 5" d="M222.593,123.53a8.873,8.873,0,0,1,.7-3.594,8,8,0,0,1,1.932-2.728,8.59,8.59,0,0,1,2.915-1.732,11.26,11.26,0,0,1,7.3,0,8.721,8.721,0,0,1,2.927,1.732,7.92,7.92,0,0,1,1.943,2.728,8.868,8.868,0,0,1,.7,3.594,9.118,9.118,0,0,1-.7,3.629,8.2,8.2,0,0,1-1.943,2.8,8.72,8.72,0,0,1-2.927,1.791,10.866,10.866,0,0,1-7.3,0,8.59,8.59,0,0,1-2.915-1.791,8.276,8.276,0,0,1-1.932-2.8A9.123,9.123,0,0,1,222.593,123.53Zm5.923,0a4.37,4.37,0,0,0,.246,1.5,3.6,3.6,0,0,0,.679,1.171,2.966,2.966,0,0,0,1.042.761,3.2,3.2,0,0,0,1.311.269,3.092,3.092,0,0,0,2.342-1.03,3.5,3.5,0,0,0,.691-1.171,4.37,4.37,0,0,0,.246-1.5,4.2,4.2,0,0,0-.246-1.463,3.148,3.148,0,0,0-.691-1.124,3.218,3.218,0,0,0-2.342-.972,3.328,3.328,0,0,0-1.311.258,3.063,3.063,0,0,0-1.042.714,3.226,3.226,0,0,0-.679,1.124A4.2,4.2,0,0,0,228.516,123.53Z" transform="translate(-168.042 -114.681)"/>
          <path id="Path_6" data-name="Path 6" d="M287.9,116.409h5.549l4.729,8.405h.094l-.234-8.405h5.291v16.576h-5.689l-4.589-7.913h-.094l.234,7.913H287.9Z" transform="translate(-213.515 -115.755)"/>
          <path id="Path_7" data-name="Path 7" d="M343.1,123.012a8.951,8.951,0,0,1,.7-3.605,8.283,8.283,0,0,1,1.92-2.763,8.487,8.487,0,0,1,2.868-1.768,9.94,9.94,0,0,1,3.524-.62,10.563,10.563,0,0,1,3.629.62,8.4,8.4,0,0,1,2.856,1.674l-3.418,4.12a3.017,3.017,0,0,0-1.171-.925,3.78,3.78,0,0,0-1.568-.316,3.466,3.466,0,0,0-1.311.246,3.084,3.084,0,0,0-1.065.714,3.309,3.309,0,0,0-.714,1.136,4.1,4.1,0,0,0-.258,1.486,3.762,3.762,0,0,0,.269,1.463,3.511,3.511,0,0,0,.726,1.112,3.076,3.076,0,0,0,1.065.714,3.4,3.4,0,0,0,1.288.246,3.247,3.247,0,0,0,1.65-.4,3.5,3.5,0,0,0,1.089-.937l3.418,4.1a8.251,8.251,0,0,1-2.762,1.791,10.427,10.427,0,0,1-7.247.035,8.541,8.541,0,0,1-2.868-1.791,8.445,8.445,0,0,1-1.92-2.763A8.808,8.808,0,0,1,343.1,123.012Z" transform="translate(-251.953 -114.256)" fill="#187c9c"/>
          <path id="Path_8" data-name="Path 8" d="M394.043,122.919a8.869,8.869,0,0,1,.7-3.594,7.984,7.984,0,0,1,1.932-2.727,8.59,8.59,0,0,1,2.915-1.733,11.265,11.265,0,0,1,7.3,0,8.722,8.722,0,0,1,2.927,1.733,7.911,7.911,0,0,1,1.943,2.727,8.864,8.864,0,0,1,.7,3.594,9.114,9.114,0,0,1-.7,3.629,8.193,8.193,0,0,1-1.943,2.8,8.725,8.725,0,0,1-2.927,1.791,10.866,10.866,0,0,1-7.3,0,8.593,8.593,0,0,1-2.915-1.791,8.271,8.271,0,0,1-1.932-2.8A9.119,9.119,0,0,1,394.043,122.919Zm5.924,0a4.376,4.376,0,0,0,.246,1.5,3.607,3.607,0,0,0,.679,1.171,2.972,2.972,0,0,0,1.042.761,3.2,3.2,0,0,0,1.311.269,3.091,3.091,0,0,0,2.341-1.03,3.494,3.494,0,0,0,.69-1.171,4.366,4.366,0,0,0,.246-1.5,4.2,4.2,0,0,0-.246-1.463,3.137,3.137,0,0,0-.69-1.124,3.214,3.214,0,0,0-2.341-.972,3.332,3.332,0,0,0-1.311.257,3.057,3.057,0,0,0-1.042.714,3.231,3.231,0,0,0-.679,1.124A4.209,4.209,0,0,0,399.967,122.919Z" transform="translate(-287.429 -114.256)"/>
          <path id="Path_9" data-name="Path 9" d="M459.347,115.8h5.619v11.777h5.5v4.8H459.347Z" transform="translate(-332.902 -115.33)"/>
          <path id="Path_10" data-name="Path 10" d="M500.134,115.8h5.619v11.777h5.5v4.8H500.134Z" transform="translate(-361.304 -115.33)"/>
          <path id="Path_11" data-name="Path 11" d="M544.213,115.8h5.924l6.462,16.576h-6.064l-.866-2.435H544.4l-.819,2.435h-5.9Zm2.88,5.783-1.358,4.1h2.693Z" transform="translate(-387.449 -115.33)"/>
          <path id="Path_12" data-name="Path 12" d="M613.131,123.758a4.466,4.466,0,0,1,1.147.456,4.13,4.13,0,0,1,1.007.8,3.655,3.655,0,0,1,.7,1.112,3.7,3.7,0,0,1,.258,1.405,4.4,4.4,0,0,1-.55,2.283,4.441,4.441,0,0,1-1.451,1.5,6.194,6.194,0,0,1-2.06.82,11.418,11.418,0,0,1-2.376.246h-7.515V115.8H609.1a16.178,16.178,0,0,1,2.142.152,7.019,7.019,0,0,1,2.1.609,4.108,4.108,0,0,1,1.592,1.335,3.859,3.859,0,0,1,.632,2.306,3.5,3.5,0,0,1-.667,2.2,3.966,3.966,0,0,1-1.768,1.288Zm-5.643-3.629v2.037h1.5a1.606,1.606,0,0,0,.96-.269.956.956,0,0,0,.375-.831.764.764,0,0,0-.4-.7,2.071,2.071,0,0,0-1.054-.234Zm0,5.619V128h1.662a1.788,1.788,0,0,0,1.065-.293.983.983,0,0,0,.41-.855.813.813,0,0,0-.175-.538,1.341,1.341,0,0,0-.433-.339,1.912,1.912,0,0,0-.55-.176,3.523,3.523,0,0,0-.55-.047Z" transform="translate(-432.44 -115.33)"/>
        </g>
        <g id="Group_10" data-name="Group 10" transform="translate(0 0)">
          <path id="Path_13" data-name="Path 13" d="M159.762,54.47l.257,9.365h-5.2V47.259h7.289l3,8.92h.117l2.6-8.92h7.524V63.835h-5.432l.164-9.319-.14-.023-3.091,9.342h-3.933l-3.044-9.365Z" transform="translate(-120.85 -42.39)"/>
          <path id="Path_14" data-name="Path 14" d="M234.4,54.47l.258,9.365h-5.2V47.259h7.289l3,8.92h.117l2.6-8.92h7.524V63.835h-5.432l.164-9.319-.141-.023-3.091,9.342h-3.933l-3.044-9.365Z" transform="translate(-172.821 -42.39)"/>
          <path id="Path_15" data-name="Path 15" d="M310.15,64.564a9.647,9.647,0,0,1-3.383-.539,6.779,6.779,0,0,1-2.4-1.475,5.874,5.874,0,0,1-1.428-2.212,7.916,7.916,0,0,1-.468-2.751V47.519h5.572v9.459a2.764,2.764,0,0,0,.574,1.861,2.317,2.317,0,0,0,3.254,0,2.766,2.766,0,0,0,.574-1.861V47.519h5.549V57.587a7.434,7.434,0,0,1-.5,2.751A6.116,6.116,0,0,1,316,62.55a6.993,6.993,0,0,1-2.447,1.475A9.847,9.847,0,0,1,310.15,64.564Z" transform="translate(-223.664 -42.571)"/>
          <path id="Path_16" data-name="Path 16" d="M359.91,47.519h5.549l4.729,8.405h.093l-.234-8.405h5.291V64.1H369.65l-4.589-7.913h-.094L365.2,64.1H359.91Z" transform="translate(-263.661 -42.571)"/>
          <path id="Path_17" data-name="Path 17" d="M414.728,47.519h5.619V64.1h-5.619Z" transform="translate(-301.832 -42.571)"/>
          <path id="Path_18" data-name="Path 18" d="M446.964,64.1h-5.572V52.225h-4.074V47.519h13.72v4.706h-4.074Z" transform="translate(-317.563 -42.571)"/>
          <path id="Path_19" data-name="Path 19" d="M490.544,64.1h-5.572v-6.79l-6.251-9.787h6.72l2.622,4.87,2.5-4.87h6.556l-6.579,9.787Z" transform="translate(-346.393 -42.571)"/>
          <g id="Group_9" data-name="Group 9" transform="translate(11.212)">
            <g id="Group_2" data-name="Group 2" transform="translate(13.327 14.71)">
              <path id="Path_20" data-name="Path 20" d="M130.561,80.12a6.476,6.476,0,0,1,3.581,1.887c1.749,1.575,2.678,3.395,2.075,4.064a.874.874,0,0,1-.678.248,6.476,6.476,0,0,1-3.581-1.887c-1.749-1.575-2.678-3.395-2.076-4.064a.875.875,0,0,1,.678-.248m0-.455a1.3,1.3,0,0,0-1.016.4c-.917,1.018.367,3.139,2.109,4.707a6.818,6.818,0,0,0,3.886,2,1.3,1.3,0,0,0,1.016-.4c.917-1.018-.367-3.139-2.109-4.707a6.818,6.818,0,0,0-3.886-2Z" transform="translate(-127.576 -79.665)" fill="#0a51a1"/>
              <path id="Path_21" data-name="Path 21" d="M128.041,82.278c.851,0,2.229,1.037,3.379,2.621,1.383,1.9,1.914,3.877,1.185,4.407a.74.74,0,0,1-.446.132c-.851,0-2.229-1.037-3.379-2.621-1.384-1.9-1.914-3.877-1.185-4.407a.741.741,0,0,1,.446-.132m0-.455a1.187,1.187,0,0,0-.714.219c-.516.375-.648,1.147-.372,2.175a9.2,9.2,0,0,0,1.456,2.868c1.24,1.706,2.71,2.808,3.747,2.808a1.186,1.186,0,0,0,.714-.219c1.108-.806.294-3.147-1.084-5.043-1.239-1.706-2.71-2.808-3.748-2.808Z" transform="translate(-125.886 -81.168)" fill="#0a51a1"/>
              <path id="Path_22" data-name="Path 22" d="M125.047,83.852c.842,0,2.089,1.361,2.947,3.287.957,2.15,1.066,4.19.243,4.557a.674.674,0,0,1-.277.057c-.842,0-2.09-1.361-2.947-3.287-.957-2.15-1.066-4.19-.243-4.557a.674.674,0,0,1,.277-.057m0-.455a1.129,1.129,0,0,0-.462.1c-1.252.557-.941,3.017.012,5.158.788,1.77,2.134,3.557,3.363,3.557a1.128,1.128,0,0,0,.462-.1c1.252-.557.941-3.017-.012-5.158-.788-1.77-2.134-3.557-3.363-3.557Z" transform="translate(-123.759 -82.264)" fill="#0a51a1"/>
            </g>
            <g id="Group_3" data-name="Group 3" transform="translate(15.563 9.847)">
              <path id="Path_23" data-name="Path 23" d="M138.695,64.106c1.815,0,3.2.49,3.278,1.237.094.9-1.727,1.822-4.068,2.068a10.822,10.822,0,0,1-1.131.06c-1.814,0-3.2-.49-3.278-1.237-.094-.9,1.727-1.822,4.068-2.068a10.838,10.838,0,0,1,1.131-.06m0-.455a11.37,11.37,0,0,0-1.178.063,9.193,9.193,0,0,0-3.106.837c-.949.482-1.434,1.1-1.367,1.731.105,1,1.57,1.645,3.731,1.645a11.284,11.284,0,0,0,1.178-.063,9.179,9.179,0,0,0,3.106-.837c.948-.482,1.434-1.1,1.367-1.731-.105-1-1.57-1.645-3.731-1.645Z" transform="translate(-132.456 -63.651)" fill="#01a0c6"/>
              <path id="Path_24" data-name="Path 24" d="M136.774,69.695a10.827,10.827,0,0,1,1.131.06c2.341.246,4.162,1.172,4.068,2.068-.078.747-1.463,1.237-3.278,1.237a10.831,10.831,0,0,1-1.131-.06c-2.341-.246-4.162-1.172-4.068-2.068.078-.747,1.463-1.237,3.278-1.237m0-.455c-2.161,0-3.626.646-3.731,1.645-.067.634.419,1.249,1.367,1.731a9.186,9.186,0,0,0,3.106.837,11.28,11.28,0,0,0,1.178.063c2.161,0,3.626-.646,3.731-1.645.067-.634-.419-1.249-1.367-1.731a9.193,9.193,0,0,0-3.106-.837,11.362,11.362,0,0,0-1.178-.063Z" transform="translate(-132.456 -67.542)" fill="#01a0c6"/>
              <path id="Path_25" data-name="Path 25" d="M134.7,74a9.167,9.167,0,0,1,2.741.483c2.239.727,3.827,2.012,3.549,2.869-.154.474-.848.718-1.816.718a9.159,9.159,0,0,1-2.741-.484c-2.239-.727-3.827-2.011-3.549-2.868.154-.474.848-.718,1.816-.718m0-.456c-1.234,0-2.033.367-2.249,1.033-.2.607.15,1.309.977,1.978a9.2,9.2,0,0,0,2.864,1.465,9.693,9.693,0,0,0,2.882.506c1.234,0,2.033-.367,2.25-1.033.423-1.3-1.612-2.718-3.841-3.443a9.689,9.689,0,0,0-2.882-.506Z" transform="translate(-132.007 -70.541)" fill="#01a0c6"/>
              <path id="Path_26" data-name="Path 26" d="M132.732,77.386a7.6,7.6,0,0,1,3.444,1.144c2.038,1.177,3.325,2.763,2.875,3.544a1.154,1.154,0,0,1-1.063.426,7.6,7.6,0,0,1-3.444-1.144c-2.038-1.177-3.325-2.763-2.875-3.544a1.154,1.154,0,0,1,1.063-.426m0-.456a1.525,1.525,0,0,0-1.457.654c-.319.552-.125,1.312.545,2.138a9.184,9.184,0,0,0,2.5,2.028,8.077,8.077,0,0,0,3.672,1.205,1.525,1.525,0,0,0,1.457-.654c.685-1.187-1.011-2.994-3.041-4.166a8.078,8.078,0,0,0-3.672-1.205Z" transform="translate(-131.124 -72.898)" fill="#01a0c6"/>
            </g>
            <g id="Group_4" data-name="Group 4" transform="translate(14.255 2.232)">
              <path id="Path_27" data-name="Path 27" d="M132.159,39.03a.74.74,0,0,1,.446.132c.729.53.2,2.5-1.185,4.407-1.151,1.583-2.528,2.621-3.379,2.621a.741.741,0,0,1-.446-.132c-.729-.53-.2-2.5,1.185-4.407,1.15-1.584,2.528-2.621,3.379-2.621m0-.456c-1.037,0-2.508,1.1-3.747,2.808a9.2,9.2,0,0,0-1.456,2.868c-.276,1.028-.144,1.8.372,2.175a1.185,1.185,0,0,0,.714.219c1.037,0,2.508-1.1,3.748-2.808,1.378-1.9,2.193-4.238,1.084-5.043a1.186,1.186,0,0,0-.714-.219Z" transform="translate(-126.814 -38.575)" fill="#018d54"/>
              <path id="Path_28" data-name="Path 28" d="M135.539,44.35a.875.875,0,0,1,.678.248c.6.67-.326,2.489-2.075,4.064a6.478,6.478,0,0,1-3.581,1.887.875.875,0,0,1-.678-.248c-.6-.67.326-2.489,2.075-4.064a6.476,6.476,0,0,1,3.581-1.887m0-.455a6.818,6.818,0,0,0-3.885,2c-1.742,1.568-3.026,3.689-2.109,4.707a1.3,1.3,0,0,0,1.016.4,6.82,6.82,0,0,0,3.886-2c1.742-1.568,3.026-3.689,2.109-4.707a1.3,1.3,0,0,0-1.017-.4Z" transform="translate(-128.503 -42.28)" fill="#018d54"/>
              <path id="Path_29" data-name="Path 29" d="M137.988,50.657a1.154,1.154,0,0,1,1.063.426c.451.78-.837,2.367-2.875,3.544a7.6,7.6,0,0,1-3.444,1.144,1.155,1.155,0,0,1-1.063-.426c-.45-.78.837-2.367,2.875-3.544a7.6,7.6,0,0,1,3.444-1.144m0-.455a8.077,8.077,0,0,0-3.671,1.205,9.191,9.191,0,0,0-2.5,2.028c-.671.826-.864,1.585-.545,2.138a1.525,1.525,0,0,0,1.457.654,8.077,8.077,0,0,0,3.672-1.2c2.03-1.172,3.727-2.98,3.041-4.166a1.524,1.524,0,0,0-1.457-.654Z" transform="translate(-129.815 -46.671)" fill="#018d54"/>
              <path id="Path_30" data-name="Path 30" d="M139.169,57.48c.968,0,1.662.244,1.816.718.278.857-1.31,2.141-3.549,2.868a9.16,9.16,0,0,1-2.741.484c-.968,0-1.662-.244-1.816-.718-.278-.857,1.31-2.141,3.549-2.868a9.16,9.16,0,0,1,2.741-.484m0-.455a9.692,9.692,0,0,0-2.882.506A9.2,9.2,0,0,0,133.424,59c-.827.669-1.175,1.371-.977,1.978.217.666,1.015,1.033,2.25,1.033a9.692,9.692,0,0,0,2.882-.506c2.229-.725,4.265-2.14,3.841-3.443-.217-.666-1.015-1.033-2.25-1.033Z" transform="translate(-130.698 -51.422)" fill="#018d54"/>
            </g>
            <g id="Group_5" data-name="Group 5" transform="translate(8.801)">
              <path id="Path_31" data-name="Path 31" d="M117.138,31.679c.9,0,1.631,1.908,1.631,4.262s-.73,4.262-1.631,4.262-1.632-1.908-1.632-4.262.73-4.262,1.632-4.262m0-.455c-1.37,0-2.087,2.373-2.087,4.717s.717,4.717,2.087,4.717,2.087-2.373,2.087-4.717-.717-4.717-2.087-4.717Z" transform="translate(-113.169 -31.224)" fill="#99cf16"/>
              <path id="Path_32" data-name="Path 32" d="M123,32.524a.644.644,0,0,1,.134.014c.881.187,1.2,2.206.71,4.508-.465,2.187-1.491,3.843-2.348,3.843a.642.642,0,0,1-.134-.014c-.881-.187-1.2-2.206-.71-4.508.465-2.187,1.491-3.843,2.348-3.843m0-.455c-1.305,0-2.363,2.179-2.793,4.2-.487,2.293-.279,4.763,1.061,5.048a1.09,1.09,0,0,0,.229.024c1.305,0,2.363-2.179,2.793-4.2.487-2.293.28-4.763-1.06-5.048a1.092,1.092,0,0,0-.229-.024Z" transform="translate(-116.593 -31.812)" fill="#99cf16"/>
              <path id="Path_33" data-name="Path 33" d="M127.96,35.016a.674.674,0,0,1,.277.057c.823.367.714,2.407-.243,4.557-.857,1.926-2.1,3.287-2.947,3.287a.674.674,0,0,1-.277-.057c-.823-.367-.715-2.407.243-4.557.857-1.926,2.1-3.287,2.947-3.287m0-.455c-1.229,0-2.575,1.786-3.363,3.557-.953,2.141-1.264,4.6-.012,5.158a1.124,1.124,0,0,0,.462.1c1.229,0,2.575-1.786,3.363-3.556.953-2.142,1.264-4.6.012-5.158a1.128,1.128,0,0,0-.462-.1Z" transform="translate(-119.233 -33.548)" fill="#99cf16"/>
              <path id="Path_34" data-name="Path 34" d="M110.383,32.524c.857,0,1.883,1.656,2.348,3.843.489,2.3.172,4.321-.71,4.508a.64.64,0,0,1-.134.014c-.857,0-1.883-1.656-2.348-3.843-.489-2.3-.172-4.32.71-4.508a.644.644,0,0,1,.134-.014m0-.455a1.087,1.087,0,0,0-.229.024c-1.34.285-1.548,2.755-1.061,5.048.43,2.025,1.488,4.2,2.793,4.2a1.09,1.09,0,0,0,.229-.024c1.34-.285,1.548-2.755,1.061-5.048-.43-2.025-1.488-4.2-2.793-4.2Z" transform="translate(-108.854 -31.812)" fill="#99cf16"/>
            </g>
            <g id="Group_6" data-name="Group 6" transform="translate(1.505 1.013)">
              <path id="Path_35" data-name="Path 35" d="M86.436,50.657A7.6,7.6,0,0,1,89.88,51.8c2.039,1.177,3.325,2.763,2.875,3.544a1.154,1.154,0,0,1-1.063.426,7.6,7.6,0,0,1-3.444-1.144c-2.038-1.177-3.326-2.764-2.875-3.544a1.154,1.154,0,0,1,1.063-.426m0-.455a1.524,1.524,0,0,0-1.457.654c-.319.552-.125,1.312.545,2.138a9.189,9.189,0,0,0,2.5,2.028,8.076,8.076,0,0,0,3.671,1.2,1.525,1.525,0,0,0,1.457-.654c.685-1.187-1.012-2.994-3.042-4.166A8.077,8.077,0,0,0,86.436,50.2Z" transform="translate(-84.829 -45.452)" fill="#ffbf00"/>
              <path id="Path_36" data-name="Path 36" d="M90.834,44.35a6.476,6.476,0,0,1,3.581,1.887c1.749,1.575,2.678,3.395,2.076,4.064a.875.875,0,0,1-.678.248,6.477,6.477,0,0,1-3.581-1.887c-1.749-1.575-2.678-3.395-2.075-4.064a.875.875,0,0,1,.678-.248m0-.455a1.3,1.3,0,0,0-1.016.4c-.917,1.018.367,3.139,2.109,4.707a6.818,6.818,0,0,0,3.885,2,1.3,1.3,0,0,0,1.016-.4c.917-1.018-.367-3.139-2.109-4.707a6.818,6.818,0,0,0-3.886-2Z" transform="translate(-88.091 -41.061)" fill="#ffbf00"/>
              <path id="Path_37" data-name="Path 37" d="M96.608,39.03c.851,0,2.229,1.037,3.379,2.621,1.383,1.9,1.914,3.877,1.185,4.407a.741.741,0,0,1-.446.132c-.851,0-2.229-1.037-3.379-2.621-1.383-1.9-1.914-3.877-1.185-4.407a.74.74,0,0,1,.446-.132m0-.456a1.187,1.187,0,0,0-.714.219c-1.108.805-.294,3.147,1.084,5.043,1.24,1.706,2.71,2.808,3.748,2.808a1.185,1.185,0,0,0,.714-.219c.516-.375.648-1.147.372-2.175a9.2,9.2,0,0,0-1.456-2.868c-1.24-1.706-2.71-2.808-3.747-2.808Z" transform="translate(-92.173 -37.356)" fill="#ffbf00"/>
              <path id="Path_38" data-name="Path 38" d="M103.3,35.016c.842,0,2.09,1.361,2.947,3.287.957,2.15,1.066,4.19.243,4.557a.674.674,0,0,1-.277.057c-.842,0-2.09-1.361-2.947-3.287-.957-2.15-1.066-4.19-.243-4.557a.674.674,0,0,1,.277-.057m0-.455a1.129,1.129,0,0,0-.462.1c-1.252.557-.941,3.017.012,5.158.788,1.77,2.134,3.556,3.363,3.556a1.123,1.123,0,0,0,.462-.1c1.252-.557.941-3.017-.012-5.158-.788-1.77-2.134-3.556-3.363-3.557Z" transform="translate(-96.797 -34.561)" fill="#ffbf00"/>
            </g>
            <g id="Group_7" data-name="Group 7" transform="translate(0 7.835)">
              <path id="Path_39" data-name="Path 39" d="M88.328,74c.968,0,1.662.244,1.816.718.278.857-1.31,2.141-3.549,2.868a9.159,9.159,0,0,1-2.741.484c-.968,0-1.662-.244-1.816-.718-.278-.857,1.31-2.141,3.549-2.869A9.167,9.167,0,0,1,88.328,74m0-.456a9.69,9.69,0,0,0-2.882.506,9.191,9.191,0,0,0-2.864,1.465c-.827.669-1.175,1.371-.978,1.978.217.666,1.015,1.033,2.25,1.033a9.69,9.69,0,0,0,2.882-.506c2.229-.724,4.265-2.14,3.841-3.443-.217-.666-1.015-1.033-2.25-1.033Z" transform="translate(-81.041 -68.528)" fill="#ff5a00"/>
              <path id="Path_40" data-name="Path 40" d="M85.53,69.695c1.814,0,3.2.49,3.278,1.237.094.9-1.727,1.822-4.068,2.068a10.83,10.83,0,0,1-1.131.06c-1.815,0-3.2-.49-3.278-1.237-.094-.9,1.727-1.822,4.068-2.068a10.828,10.828,0,0,1,1.131-.06m0-.455a11.281,11.281,0,0,0-1.178.063,9.2,9.2,0,0,0-3.106.837c-.948.482-1.434,1.1-1.367,1.731.105,1,1.57,1.645,3.731,1.645a11.29,11.29,0,0,0,1.179-.063,9.188,9.188,0,0,0,3.106-.837c.948-.482,1.434-1.1,1.367-1.731-.105-1-1.57-1.645-3.731-1.645Z" transform="translate(-79.872 -65.53)" fill="#ff5a00"/>
              <path id="Path_41" data-name="Path 41" d="M83.609,64.106a10.832,10.832,0,0,1,1.131.06c2.341.246,4.162,1.172,4.068,2.068-.079.747-1.463,1.237-3.278,1.237a10.821,10.821,0,0,1-1.131-.06c-2.341-.246-4.162-1.172-4.068-2.068.078-.747,1.463-1.237,3.278-1.237m0-.455c-2.161,0-3.626.646-3.731,1.645-.067.634.419,1.249,1.367,1.731a9.181,9.181,0,0,0,3.106.837,11.288,11.288,0,0,0,1.179.063c2.161,0,3.626-.646,3.731-1.645.067-.634-.419-1.249-1.367-1.731a9.2,9.2,0,0,0-3.106-.837,11.377,11.377,0,0,0-1.179-.063Z" transform="translate(-79.872 -61.639)" fill="#ff5a00"/>
              <path id="Path_42" data-name="Path 42" d="M83.855,57.48a9.158,9.158,0,0,1,2.741.484c2.239.727,3.827,2.011,3.549,2.868-.154.474-.848.718-1.816.718a9.158,9.158,0,0,1-2.741-.484c-2.239-.727-3.827-2.011-3.549-2.868.154-.474.848-.718,1.816-.718m0-.455c-1.234,0-2.033.367-2.249,1.033-.2.607.15,1.309.978,1.978A9.2,9.2,0,0,0,85.447,61.5a9.691,9.691,0,0,0,2.882.506c1.234,0,2.033-.367,2.25-1.033.423-1.3-1.612-2.718-3.841-3.443a9.689,9.689,0,0,0-2.882-.506Z" transform="translate(-81.041 -57.025)" fill="#ff5a00"/>
            </g>
            <g id="Group_8" data-name="Group 8" transform="translate(1.505 13.88)">
              <path id="Path_43" data-name="Path 43" d="M106.216,83.852a.674.674,0,0,1,.277.057c.823.367.715,2.407-.243,4.557-.857,1.926-2.1,3.287-2.947,3.287a.674.674,0,0,1-.277-.057c-.823-.367-.715-2.407.243-4.557.857-1.926,2.1-3.287,2.947-3.287m0-.455c-1.229,0-2.575,1.786-3.363,3.557-.953,2.141-1.264,4.6-.012,5.158a1.129,1.129,0,0,0,.462.1c1.229,0,2.575-1.786,3.363-3.557.953-2.141,1.264-4.6.012-5.158a1.128,1.128,0,0,0-.462-.1Z" transform="translate(-96.797 -81.433)" fill="#f0047f"/>
              <path id="Path_44" data-name="Path 44" d="M100.726,82.278a.741.741,0,0,1,.446.132c.729.53.2,2.5-1.185,4.407-1.15,1.584-2.528,2.621-3.379,2.621a.741.741,0,0,1-.446-.132c-.729-.53-.2-2.5,1.185-4.407,1.151-1.583,2.528-2.621,3.379-2.621m0-.455c-1.037,0-2.508,1.1-3.748,2.808-1.378,1.9-2.193,4.238-1.084,5.043a1.187,1.187,0,0,0,.714.219c1.037,0,2.508-1.1,3.747-2.808a9.2,9.2,0,0,0,1.456-2.868c.276-1.027.144-1.8-.372-2.175a1.187,1.187,0,0,0-.714-.219Z" transform="translate(-92.173 -80.337)" fill="#f0047f"/>
              <path id="Path_45" data-name="Path 45" d="M95.812,80.12a.877.877,0,0,1,.678.248c.6.67-.326,2.489-2.076,4.064a6.476,6.476,0,0,1-3.581,1.887.874.874,0,0,1-.678-.248c-.6-.67.326-2.489,2.075-4.064a6.478,6.478,0,0,1,3.581-1.887m0-.455a6.816,6.816,0,0,0-3.885,2c-1.742,1.568-3.026,3.689-2.109,4.707a1.3,1.3,0,0,0,1.016.4,6.818,6.818,0,0,0,3.886-2,9.186,9.186,0,0,0,2.021-2.5c.484-.947.515-1.73.088-2.2a1.3,1.3,0,0,0-1.016-.4Z" transform="translate(-88.091 -78.835)" fill="#f0047f"/>
              <path id="Path_46" data-name="Path 46" d="M91.692,77.386a1.155,1.155,0,0,1,1.063.426c.45.78-.837,2.367-2.875,3.544A7.6,7.6,0,0,1,86.436,82.5a1.154,1.154,0,0,1-1.063-.426c-.451-.78.837-2.367,2.875-3.544a7.593,7.593,0,0,1,3.444-1.144m0-.456a8.076,8.076,0,0,0-3.671,1.205,9.183,9.183,0,0,0-2.5,2.028c-.67.826-.864,1.586-.545,2.138a1.525,1.525,0,0,0,1.457.654,8.077,8.077,0,0,0,3.671-1.205c2.03-1.172,3.727-2.979,3.042-4.166a1.525,1.525,0,0,0-1.457-.654Z" transform="translate(-84.829 -76.931)" fill="#f0047f"/>
            </g>
          </g>
          <path id="Path_47" data-name="Path 47" d="M42.949,54.473a8.953,8.953,0,0,1,.7-3.605,8.283,8.283,0,0,1,1.92-2.763,8.489,8.489,0,0,1,2.868-1.768,9.939,9.939,0,0,1,3.524-.62,10.563,10.563,0,0,1,3.629.62,8.41,8.41,0,0,1,2.856,1.674l-3.418,4.12a3.022,3.022,0,0,0-1.171-.925,3.78,3.78,0,0,0-1.569-.316,3.465,3.465,0,0,0-1.311.246,3.083,3.083,0,0,0-1.065.714,3.313,3.313,0,0,0-.714,1.136,4.1,4.1,0,0,0-.258,1.486,3.761,3.761,0,0,0,.269,1.463,3.507,3.507,0,0,0,.726,1.112A3.072,3.072,0,0,0,51,57.763a3.4,3.4,0,0,0,1.288.246,3.249,3.249,0,0,0,1.651-.4,3.493,3.493,0,0,0,1.089-.937l3.418,4.1a8.258,8.258,0,0,1-2.763,1.791,10.427,10.427,0,0,1-7.246.035,8.539,8.539,0,0,1-2.868-1.791,8.446,8.446,0,0,1-1.92-2.763A8.808,8.808,0,0,1,42.949,54.473Z" transform="translate(-42.949 -41.316)" fill="#187c9c"/>
        </g>
      </g>
    </g>
  </g>
</svg>
